<svg xmlns="http://www.w3.org/2000/svg" xmlns:xlink="http://www.w3.org/1999/xlink" width="273" height="162.422" viewBox="0 0 273 162.422"><defs><style>.a{stroke:#707070;fill:url(#a);}.a,.b,.j{opacity:0.16;}.c{opacity:0.19;}.aj,.ak,.ao,.ar,.as,.at,.aw,.ax,.ay,.bb,.be,.bg,.bh,.c,.g,.j,.s,.t,.w,.z{mix-blend-mode:multiply;}.ab,.ac,.ad,.ag,.ah,.aj,.ak,.ao,.ar,.as,.at,.au,.av,.aw,.ax,.ay,.bb,.be,.bg,.bh,.bi,.bl,.bp,.c,.e,.f,.g,.i,.j,.k,.s,.t,.u,.v,.w,.x,.z{isolation:isolate;}.d{fill:#fffbef;}.e{fill:#cecece;opacity:0.94;}.ab,.ac,.ad,.ag,.ah,.au,.av,.bl,.e,.f,.i,.k,.v,.x{mix-blend-mode:color-dodge;}.f{fill:#cc3922;}.g{fill:#e6d6c3;opacity:0.22;}.h{fill:#818181;}.i{fill:#dedede;}.i,.t{opacity:0.1;}.j,.t{fill:#5b2b4b;}.ad,.ae,.k,.r,.w{fill:#fff;}.k{opacity:0.39;}.l{fill:#414141;}.m{fill:#606060;}.n{fill:#5e5e5e;}.o{fill:#0d0d0d;opacity:0.05;}.ac,.p{fill:#a2a2a2;}.p{opacity:0.7;}.q{fill:#2d2d2d;opacity:0.73;}.s{fill:#5b1b02;opacity:0.32;}.u{fill:#bebebe;mix-blend-mode:darken;}.au,.v,.x{fill:#ff667c;}.v{opacity:0.72;}.w{opacity:0.2;}.x{opacity:0.36;}.y{fill:#848484;}.z{fill:#979696;opacity:0.55;}.aa,.as{fill:#505050;}.ab{opacity:0.37;}.ac{opacity:0.42;}.ad,.ae{opacity:0.91;}.af{fill:#27140a;opacity:0.54;}.ag{fill:#680951;opacity:0.31;}.ah{fill:#343434;}.ai{opacity:0.28;}.aj{fill:#ff83b6;opacity:0.45;}.ak{fill:#656565;}.ak,.ao,.ar,.as,.ay,.bb,.be{opacity:0.44;}.al{fill:#fffcd4;}.am{fill:#946441;}.an{fill:#521437;}.ao{fill:#7e7e7e;}.ap{fill:#fffddc;}.aq{fill:#a17350;}.ar{fill:#7b7b7b;}.at{fill:#c2c2c2;}.aw,.ax{fill:#67610e;}.aw{opacity:0.33;}.ay{fill:#b7b7b7;}.az{fill:#fff4c8;}.ba{fill:#94603a;}.bb{fill:#9d9d9d;}.bc{fill:#fff3c2;}.bd{fill:#7e4938;}.be{fill:#858585;}.bf{fill:#535353;}.bg{fill:#e54c91;opacity:0.18;}.bh{fill:#b4b4b4;opacity:0.8;}.bi{opacity:0.84;fill:url(#b);}.bi,.bp{mix-blend-mode:screen;}.bj{fill:#5a5a5a;}.bk{fill:#919191;opacity:0.29;}.bl{fill:#ff9964;}.bl,.bm{opacity:0;}.bm{fill:url(#c);}.bn{fill:url(#d);}.bo{fill:#b9b9b9;}.bp{fill:#bdffeb;}.bq{stroke:none;}.br{fill:none;}</style><radialGradient id="a" cx="0.5" cy="0.5" r="0.5" gradientUnits="objectBoundingBox"><stop offset="0"/><stop offset="1" stop-color="#545454" stop-opacity="0"/></radialGradient><linearGradient id="b" y1="0.5" x2="1" y2="0.5" gradientUnits="objectBoundingBox"><stop offset="0" stop-color="#a44d25"/><stop offset="1" stop-color="#db984e"/></linearGradient><linearGradient id="c" y1="0.5" x2="1" y2="0.5" gradientUnits="objectBoundingBox"><stop offset="0" stop-color="#682837"/><stop offset="1" stop-color="#7c4437"/></linearGradient><linearGradient id="d" x1="2.571" y1="0.48" x2="1.409" y2="0.492" gradientUnits="objectBoundingBox"><stop offset="0" stop-color="#682837"/><stop offset="1" stop-color="#474747"/></linearGradient></defs><g transform="translate(-118 -434.578)"><g class="a" transform="translate(133 546)"><ellipse class="bq" cx="121.5" cy="18" rx="121.5" ry="18"/><ellipse class="br" cx="121.5" cy="18" rx="121" ry="17.5"/></g><g transform="translate(-235.831 327.578)"><g class="b" transform="translate(429.034 226.606)"><path d="M533.447,303.21c0,1.795-22.7,3.25-50.706,3.25s-50.706-1.455-50.706-3.25,22.7-3.249,50.706-3.249S533.447,301.416,533.447,303.21Z" transform="translate(-432.035 -297.145)"/><path class="c" d="M564.807,294.673l.247,4.271,26,1.362-26.68-.681Z" transform="translate(-478.299 -294.673)"/><ellipse cx="28.104" cy="1.455" rx="28.104" ry="1.455" transform="translate(79.282 3.544)"/><path d="M546.213,308.621c0,.581-5.321,1.052-11.885,1.052s-11.885-.471-11.885-1.052,5.321-1.053,11.885-1.053S546.213,308.04,546.213,308.621Z" transform="translate(-460.656 -298.446)"/><path d="M631.012,308.57c0,1.408-11.545,2.548-25.784,2.548s-25.783-1.14-25.783-2.548,11.543-2.548,25.783-2.548S631.012,307.163,631.012,308.57Z" transform="translate(-477.743 -303.467)"/><path d="M637.781,311.658c0,.444-3.3.8-7.382.8s-7.381-.361-7.381-.8,3.3-.805,7.381-.805S637.781,311.214,637.781,311.658Z" transform="translate(-504.474 -303.621)"/><path d="M660.7,306.642c0,.342-2.314.619-5.169.619s-5.169-.277-5.169-.619,2.315-.62,5.169-.62S660.7,306.3,660.7,306.642Z" transform="translate(-509.191 -298.75)"/><path d="M663.473,310.263a13.177,13.177,0,0,1-5.385,0,13.146,13.146,0,0,1,5.385,0Z" transform="translate(-511.968 -300.174)"/></g><g transform="translate(462.793 136.249)"><path class="d" d="M613.748,155.276l-2.039,11.633-.392,2.242L607.451,191.2l-.392,2.241-.337,1.923-.392,2.241-4.917,28.056-.659,3.761-.172.979-.392,2.242-2.562,14.613-107.3-.583-8.607-78.412,91.761.656-1.313-16.266Z" transform="translate(-481.723 -152.65)"/><path class="d" d="M533.474,188.336l-1.527,20.535v50.847l-41.139-.225-7.754-70.156Z" transform="translate(-482.201 -165.471)"/></g><path class="e" d="M533.474,188.326l-1.527,20.536v50.847l-41.139-.226-7.754-70.156Z" transform="translate(-19.408 -29.218)"/><path class="f" d="M623.57,160.188l.292,31.948.438,1.021V196.8l.437.656v7.878l-.583,1.167.583,25.019.73,4.085v14.1h11.905l.495-1.115v-1.386l.583-7.44.292-2.334-.315-.158.315-3.576,1.459-14.282.49-10.763,1.552-13.161.292-4.377V188.27l2.042-28.448Z" transform="translate(-69.892 -18.978)"/><path class="g" d="M594.357,155.178l-7.513,92.928-13.623-.207,0-3.051-.019,3.185h-2.516l-.36-35.71L555.187,212l-.218.218-16.339.073-.219.219-6.492.281-19.256-.427L502.3,212l-5.544-.292-10.116.646-.231-2.239,84.249.341.571-1.082.146-2.845-.282-1.386-.858-.495-1.169-26.929-35.826,1.264-8.767.995-41.094.8-.41-3.5,90.29-1.875-.207-20.591Z" transform="translate(-19.38 -17.178)"/><g transform="translate(447.038 113.565)"><path class="h" d="M563.993,146.585l10.65,13.786-48.236.509-52.993.559-16.28.172,3.255-2.553,11.464-8.993L481.5,142.5s6.463-21.638,9.9-22.9l.024-.008a.923.923,0,0,1,.172-.037,21.281,21.281,0,0,1,3.358.1C512.529,121,588.063,132,588.063,132l8.716,10.869-32.568-2.043Z" transform="translate(-457.133 -118.065)"/><path class="i" d="M575.127,132.04l7.085,9.766,1.81.491,6.315,10.024,27.986-2.675,6.83-1.479-9.146-12.424-14.03-1.1-.628-.975-15.5-1.32.056.585Z" transform="translate(-499.525 -122.561)"/><path class="j" d="M526.406,160.88l-52.993.559-16.28.172,2.288-2,12.431-9.547L481.5,142.5s6.463-21.638,9.9-22.9l.024-.008a.923.923,0,0,1,.172-.037,21.281,21.281,0,0,1,3.358.1l1.867.667,2.116,1.532,9.191,11.014-1.007,1.488,6.186,7.776,1.269.691,4.64,5.654-.219.875Z" transform="translate(-457.133 -118.065)"/><path class="k" d="M525.865,142.545H495.156s6.463-21.638,9.9-22.9c-3.113,2.325-8.229,23.283-6.1,21C501.867,137.512,525.865,142.545,525.865,142.545Z" transform="translate(-470.794 -118.11)"/><path class="l" d="M505.744,121.7l2.553-4.449h2.626l8.826.948,20.642,3.282,51.57,6.127v2.48l-50.987-5.69-21.445-2.918h-7.586l-3.064-2.553-2.407,2.772Z" transform="translate(-474.597 -117.246)"/><path class="m" d="M459.759,187.8l-2.626-3.282,117.364-1.24-.875,2.261Z" transform="translate(-457.133 -140.968)"/><path class="n" d="M557.374,137.379l-.813,1.111-7.1-.959-6.356-8.072,6.483,7.35Z" transform="translate(-488.021 -121.634)"/><path class="n" d="M564.1,143.554l4.451,1.131,6.9,10.672,7.42.544.449-1.137-7.368-.248-6.794-10.079Z" transform="translate(-495.565 -126.698)"/><path class="n" d="M553.689,145.761l8,10.323,8.612.012-.04-1.239-8.163.338Z" transform="translate(-491.823 -127.491)"/><path class="n" d="M586.636,174.381l-.583,1.459s-3.356-.146-3.866-.146-4.45.584-4.45.584l-8.242-13.494,8.826,12.181a36.077,36.077,0,0,1,4.139-.583Z" transform="translate(-497.502 -133.606)"/><path class="n" d="M575.073,132.045l7.076,10.868H583.9l5.762,9.774,2.116.511,7.661,11.857,9.189-.113.452-1.063-9.279.407-7.732-11.379,9.045-.292.511-1.459-11.294,1.217-6-9.561,8.321.028-10.2-.8Z" transform="translate(-499.506 -122.563)"/><path class="o" d="M508.074,159.823l-3.355,6.856h7.586l-1.459,8.826,8.1-1.094v-2.042s.365,1.75.73,1.824,25.967.8,25.967.8l-6.71-9.482-1.313-.146-3.5-5.179-14.078-.365Z" transform="translate(-474.229 -132.543)"/><path class="p" d="M516.68,136.083c.772,3.067-.644,6.067-3.164,6.7s-5.189-1.337-5.961-4.4.644-6.068,3.163-6.7S515.907,133.017,516.68,136.083Z" transform="translate(-475.173 -122.389)"/><path class="q" d="M515.9,137.1c.6,2.369-.318,4.642-2.042,5.076s-3.607-1.134-4.2-3.5.317-4.642,2.042-5.076S515.3,134.727,515.9,137.1Z" transform="translate(-475.935 -123.093)"/><path class="r" d="M523.5,124.987l7.878,9.628-.8,1.167,6.857,9.774.976-.767-6.083-9.007.73-.511Z" transform="translate(-480.978 -120.027)"/><path class="r" d="M545.7,154.814l7.368,7.44-.657.365,9.264,9.847-.437,1.167-3.72.073-1.531-2.48-5.835-9.555.511-.657Z" transform="translate(-488.953 -130.743)"/><path class="s" d="M510.639,119.637l3.064,2.7h8.169l25.311,3.428-24.873-4.522-8.461.146Z" transform="translate(-476.356 -118.105)"/><path class="t" d="M630.155,148.223l-25.822-10.941-6.492,15.61,1.9,5.033H601.2l5.762,4.741,2.334-1.24,9.92,5.4,5.835-.073-10.5-13.786Z" transform="translate(-507.686 -124.445)"/></g><g transform="translate(463.668 185.413)"><path class="u" d="M574.7,232.006v4.96l-1.442.939h-41.3l-46.026-1.012-1.021-.292-1.824-6.492,2.594-.683h0l.177-.046v.583l45.945.734,41.439.8,1.251.438Z" transform="translate(-483.089 -229.381)"/><path class="v" d="M574.5,231.96h-42.39l-27.718-.584-14.953-.218-5.835-.584-.511-.438,2.594-.683h.178v.536l45.945.734,41.439.8Z" transform="translate(-483.089 -229.407)"/><path class="w" d="M553.1,235.528h3.428l-.438,3.647h-2.407Z" transform="translate(-508.243 -231.59)"/><path class="x" d="M553.1,233.229l3.72.525.511.656-.219,3.939-.583.939h.8l.365-.647.948-4.449-.624-.875Z" transform="translate(-508.243 -230.763)"/></g><g transform="translate(548.646 107)"><path class="y" d="M668.307,142.814,641.391,138l-.1.005-13.421.686-12.159.622v0c.186-.244,19.281-25.256,26.144-31.1a6.028,6.028,0,0,1,1.752-1.166.863.863,0,0,1,.258-.046.669.669,0,0,1,.189.03C648.063,108.182,668.307,142.814,668.307,142.814Z" transform="translate(-615.716 -107)"/><path class="z" d="M626.087,162.865l18.528-1.544,19.079,2.956.439-3.109-20.473-4.077-19.6.458v3.408Z" transform="translate(-618.714 -124.996)"/><path class="aa" d="M615.716,156.7l.875,1.386,4.3.875,20.836-.737,19.225,3.363h5.966l1.386-1.386-26.915-4.814Z" transform="translate(-615.716 -124.383)"/><path class="ab" d="M682.7,142.814,655.788,138l1.677-1.094,7.951,1.717h.005c.254.028,7.561,1.572,10.644.545,3.282-1.094-14.807-29.1-16.047-30.563s-1.751-1.6-1.751-1.6l.189.03C662.46,108.182,682.7,142.814,682.7,142.814Z" transform="translate(-630.113 -107)"/><path class="ac" d="M655.788,155.3l.472,1.743,25.058,4.457,1.386-1.386-5.252-1.021-.218-.656-8.681-1.678-.656.219-10.868-1.824Z" transform="translate(-630.113 -124.301)"/><path class="ad" d="M657.231,108.594l-1.678,10.066.365.364-1.386,7.951.438.584-1.459,9.118,1.459,1.9,1.678-1.094-.437-10.5.438-1.094.219-6.93.365-.875Z" transform="translate(-629.294 -107.573)"/><path class="ae" d="M630.747,122.708l4.809.365v.584h-5.909s-4.231,4.449-4.668,5.544-.584,1.532-.584,1.532h5.251l.146.656-7.513.584-4.012,6.273,9.347-.365.259.837-12.159.622v0c.186-.244,19.281-25.256,26.144-31.1a6.029,6.029,0,0,1,1.752-1.166c-5.14,3.966-9.815,10.569-11.777,13.3C630.085,122.813,630.783,122.689,630.747,122.708Z" transform="translate(-615.716 -107.026)"/><path class="af" d="M671.4,125.56l-4.371-.629-2.7-7,2.188,7.878,4.158.437Z" transform="translate(-633.18 -110.926)"/><path class="af" d="M668.538,132.045l3.647,10.139,5.835.511.51-1.021-2.042-.292-.511-1.021.219,1.021-2.772.073-.73-.511-3.866-8.534Z" transform="translate(-634.693 -115.998)"/><path class="af" d="M659.918,118.84l-.146,6.565.365.73,3.939.146.437-.875h-2.553l-.219-.438-1.6.219Z" transform="translate(-631.544 -111.254)"/><path class="af" d="M661.708,132.956l.437,8.753,6.054.8.511-.948-3.063-.219-2.261-.875-.511.073Z" transform="translate(-632.24 -116.325)"/><path class="r" d="M625.613,153.546h5.325l2.189-2.261-.657,2.261,10.577-.657,1.094,1.021-13.421.657-7.149-.511Z" transform="translate(-618.538 -122.91)"/><path class="ag" d="M615.716,156.7l.875,1.386,25.238-.948-.511-1.751Z" transform="translate(-615.716 -124.383)"/></g><path class="ah" d="M565.02,183.879l-.876,2.407,33.043-.875-.107-1.875Z" transform="translate(-48.542 -27.497)"/><g class="ai" transform="translate(465.419 163.968)"><path class="aj" d="M486.4,195.911h8.024l.8.473-.8,3.9s-7.878-.354-8.024-.354-.584-.591-.584-.591Z" transform="translate(-485.821 -195.911)"/><path class="aj" d="M497.206,205.132v2.918h9.628v-2.042Z" transform="translate(-489.911 -199.224)"/><path class="aj" d="M503.41,281.982l-8.019.277-.818-.445.667-3.929s7.885.083,8.031.078.6.571.6.571Z" transform="translate(-488.965 -225.362)"/><path class="aj" d="M514.212,261.267l-.1-2.916-9.622.332.07,2.041Z" transform="translate(-492.528 -218.344)"/><path class="aj" d="M550.882,295.188l-8.019.277-.818-.445.667-3.929s7.885.083,8.031.078.6.571.6.571Z" transform="translate(-506.021 -230.107)"/></g><g transform="translate(472.062 160.718)"><g transform="translate(0 0)"><path class="ak" d="M496.874,214.632l2.217-.257,4.976-.01s-.051-15.4-2.222-21.054c-.494-1.289-1.588-2.446-2.319-2.462-3.588-.081-3.181,23.3-3.181,23.3Z" transform="translate(-496.24 -190.842)"/><path class="al" d="M496.26,214.145l.333-.02,2.092-.126,4.711.007s-.019-15.409-2.189-21.065c-.495-1.289-1.095-2.087-1.826-2.1C495.443,190.75,496.26,214.145,496.26,214.145Z" transform="translate(-496.189 -190.839)"/><path class="am" d="M497.969,214.361l1.538-.213,3.05-.423s.076-13.818-1.244-18.917c-.3-1.162-.673-1.872-1.137-1.863C497.682,192.993,497.969,214.361,497.969,214.361Z" transform="translate(-496.825 -191.595)"/><path class="an" d="M501.473,215.146l2.552-.078s-.167-14.116-1.487-19.216C500.885,197.681,501.472,210.324,501.473,215.146Z" transform="translate(-498.051 -192.64)"/></g><g transform="translate(20.707 0.138)"><path class="ao" d="M529.059,214.669l2.218-.132,4.946.268s.827-15.376-1.007-21.143c-.418-1.315-1.439-2.531-2.164-2.589-3.561-.281-4.49,23.087-4.49,23.087Z" transform="translate(-528.526 -191.06)"/><path class="ap" d="M528.507,214.149h.333l2.086-.009,4.681.271s.86-15.385-.975-21.152c-.418-1.315-.969-2.145-1.694-2.2C529.03,190.747,528.507,214.149,528.507,214.149Z" transform="translate(-528.507 -191.053)"/><path class="aq" d="M530.405,214.3l1.547-.136,3.067-.272s.757-13.8-.31-18.956c-.243-1.176-.58-1.9-1.043-1.917C531.172,192.945,530.405,214.3,530.405,214.3Z" transform="translate(-529.189 -191.759)"/><path class="an" d="M533.749,215.276h2.7s.53-14.106-.537-19.265C534.168,197.756,533.984,210.459,533.749,215.276Z" transform="translate(-530.39 -192.834)"/></g><g transform="translate(2.911 37.634)"><path class="ar" d="M501.514,273.4l2.176-.292,4.893-.091s-.259-15.395-2.47-21.014c-.5-1.281-1.6-2.42-2.314-2.424-3.53-.023-2.812,23.349-2.812,23.349Z" transform="translate(-500.803 -249.577)"/><path class="al" d="M500.884,272.928l.327-.026,2.055-.16,4.633-.069s-.228-15.406-2.439-21.025c-.5-1.281-1.1-2.069-1.823-2.073C499.764,249.549,500.884,272.928,500.884,272.928Z" transform="translate(-500.733 -249.575)"/><path class="aq" d="M502.3,272.876l1.538-.214,3.05-.423s.076-13.818-1.244-18.917c-.3-1.162-.673-1.873-1.136-1.863C502.008,251.508,502.3,272.876,502.3,272.876Z" transform="translate(-501.291 -250.252)"/><path class="an" d="M505.527,273.661l2.7-.079s-.167-14.116-1.487-19.215C505.083,256.2,505.235,268.92,505.527,273.661Z" transform="translate(-502.389 -251.297)"/></g><g transform="translate(19.792 38.253)"><path class="as" d="M527.6,274.181l2.1-.159,4.684.206s.815-15.371-.91-21.109c-.393-1.308-1.358-2.511-2.045-2.56-3.372-.236-4.3,23.12-4.3,23.12Z" transform="translate(-527.098 -250.547)"/><path class="al" d="M527.08,273.669l.315-.006,1.976-.035,4.434.211s.846-15.379-.88-21.118c-.393-1.308-.914-2.13-1.6-2.178C527.624,250.284,527.08,273.669,527.08,273.669Z" transform="translate(-527.08 -250.542)"/><path class="aq" d="M528.422,273.664l1.549-.111,3.071-.22s.991-13.782.011-18.958c-.223-1.18-.548-1.913-1.01-1.935C529.551,252.324,528.422,273.664,528.422,273.664Z" transform="translate(-527.562 -251.223)"/><path class="an" d="M531.813,274.638l2.669.094s.769-14.1-.211-19.272C532.5,257.175,532.131,269.826,531.813,274.638Z" transform="translate(-528.781 -252.309)"/></g></g><g transform="translate(468.191 163.603)"><path class="at" d="M561.427,248.164h8.023l.8.473-.8,3.9s-7.877-.355-8.023-.355-.584-.591-.584-.591Z" transform="translate(-515.547 -214.319)"/><path class="at" d="M572.227,257.386V260.3h9.628v-2.042Z" transform="translate(-519.637 -217.633)"/><path class="at" d="M561.685,274.473l-.1-2.916-9.622.332.07,2.041Z" transform="translate(-512.356 -222.724)"/><path class="at" d="M490.862,246l-.715,2.771h7.008l.286-2.451-.786-.32Z" transform="translate(-490.147 -213.543)"/><path class="au" d="M520.773,251.353l-.424,3.792h-8.912l.106-3.355,1.379-.437Z" transform="translate(-497.796 -215.465)"/><path class="au" d="M550.713,217.541l-.424,1.823h-8.912l.106-1.613,1.379-.21Z" transform="translate(-508.553 -203.317)"/><path class="au" d="M518.837,210.027l-.424,1.823H509.5l.106-1.613,1.379-.21Z" transform="translate(-497.101 -200.618)"/><path class="au" d="M612.859,224.824l-.343,3.065h-7.2l.086-2.711,1.115-.354Z" transform="translate(-531.524 -205.934)"/><path class="au" d="M563.02,195.342l-.583,4.3.583.511h7.951l1.094-3.939Z" transform="translate(-516.119 -195.342)"/><path class="at" d="M561.9,204.222l-.715,2.772h7.008l.286-2.452-.787-.32Z" transform="translate(-515.669 -198.532)"/><path class="au" d="M576.327,214.126l-.424,3.793h-8.912l.106-3.356,1.379-.437Z" transform="translate(-517.755 -202.09)"/></g><g class="av" transform="translate(554.469 144.2)"><path class="aw" d="M625.555,199.752l5.1-.2v2.97l-.5.4h-5s-.463-.712-.33-.852A23.031,23.031,0,0,0,625.555,199.752Z" transform="translate(-624.804 -177.453)"/><path class="ax" d="M626.918,244.247l5.1-.2v2.97l-.5.4h-5s-.464-.712-.331-.851A23.1,23.1,0,0,0,626.918,244.247Z" transform="translate(-625.294 -193.438)"/><path class="au" d="M639.9,251.874l5.1-.2v2.97l-.495.4h-5s-.463-.713-.33-.851A23.125,23.125,0,0,0,639.9,251.874Z" transform="translate(-629.957 -196.179)"/><path class="au" d="M631.307,205.5v1.93l5.693-.2V205.5Z" transform="translate(-627.14 -179.59)"/><path class="au" d="M625.041,190.333l-.219,3.574L624.9,195l8.024-.511v-4.158Z" transform="translate(-624.811 -174.139)"/><path class="ax" d="M646.681,165.06h5.762l8.242,1.313-.511,2.188-8.067-.2-5.427.2Z" transform="translate(-632.664 -165.06)"/><path class="ax" d="M642.24,218.224H648l8.242,1.313-.511,2.407-8.067-.42-5.427.2Z" transform="translate(-631.069 -184.16)"/><path class="au" d="M664.782,211.512l-.644,3.762-8.9-.518.3-3.343,1.4-.357Z" transform="translate(-635.74 -181.585)"/><path class="au" d="M666.425,266.533l-.66,3.761-3.086-.18.3-3.343,1.4-.357Z" transform="translate(-638.412 -201.474)"/><path class="au" d="M662.451,273.772l-.392,2.242-8.128-.473.222-1.99,1.392-.18Z" transform="translate(-635.269 -203.973)"/><path class="au" d="M674.423,219.228l-.392,2.241-3.869-.225.223-1.99,1.392-.18Z" transform="translate(-641.1 -184.466)"/><path class="au" d="M676.923,212.807l-.392,2.241-1.442-.084.222-1.99,1.392-.18Z" transform="translate(-642.87 -182.209)"/><path class="au" d="M682.6,174.841l-.392,2.242-3.161-.184.222-1.99,1.392-.18Z" transform="translate(-644.293 -168.533)"/><path class="ax" d="M674.173,168.975,673.3,171.7l7,.4.427-2.431-.767-.365Z" transform="translate(-642.227 -166.466)"/></g><g transform="translate(570.82 147.7)"><g transform="translate(4.96 0)"><path class="ay" d="M668.545,194.229l-3.416-.347-7.065-.455s1.877-15.188,5.617-20.643a5.207,5.207,0,0,1,3.575-2.261c5.089.218,1.75,23.488,1.75,23.488Z" transform="translate(-658.064 -170.522)"/><path class="az" d="M669.506,194.012l-.47-.049-2.946-.3-6.773-.688s1.949-15.051,5.69-20.506c.852-1.243,1.8-1.988,2.833-1.944C673.425,170.765,669.506,194.012,669.506,194.012Z" transform="translate(-658.514 -170.523)"/><path class="ba" d="M669.294,193.976l-2.544-.318-5.042-.63s1.452-13.79,4.236-18.789c.635-1.139,1.338-1.822,2.11-1.781C672.211,172.677,669.294,193.976,669.294,193.976Z" transform="translate(-659.373 -171.217)"/><path class="an" d="M666.75,194.658l-5.042-.63s1.452-13.79,4.236-18.789C668.5,177.177,667.3,189.847,666.75,194.658Z" transform="translate(-659.373 -172.217)"/></g><g transform="translate(0 37.931)"><path class="bb" d="M660.287,252.261l-3.247-.329-6.717-.433s1.784-14.439,5.34-19.625a4.95,4.95,0,0,1,3.4-2.15c4.838.207,1.665,22.329,1.665,22.329Z" transform="translate(-650.323 -229.722)"/><path class="bc" d="M661.2,252.053l-.447-.045-2.8-.284-6.439-.654s1.854-14.309,5.41-19.5c.81-1.181,1.708-1.89,2.694-1.848C664.926,229.953,661.2,252.053,661.2,252.053Z" transform="translate(-650.751 -229.723)"/><path class="bd" d="M661,252.021l-2.418-.3-4.794-.6s1.379-13.111,4.028-17.862c.6-1.083,1.272-1.733,2.005-1.693C663.773,231.772,661,252.021,661,252.021Z" transform="translate(-651.568 -230.383)"/><path class="an" d="M658.581,252.669l-4.794-.6s1.379-13.111,4.028-17.862C660.242,236.049,659.108,248.095,658.581,252.669Z" transform="translate(-651.568 -231.333)"/></g></g><g transform="translate(520.658 159.783)"><path class="be" d="M588.683,214.692l-5.412.317-11.238-.134s.826-16.032,5.937-22.4a9.428,9.428,0,0,1,5.3-3.038c8.021-.782,6.03,24.863,6.03,24.863Z" transform="translate(-572.034 -189.396)"/><path class="al" d="M589.979,214.272l-.745.044-4.892-.158-10.441.077s.96-15.905,6.072-22.27a6.188,6.188,0,0,1,4.176-2.565C592.951,188.543,589.979,214.272,589.979,214.272Z" transform="translate(-572.705 -189.38)"/><path class="aq" d="M589.792,214.36l-2.771-.019-1.875-.012-8.6-.024s.9-14.512,5.064-20.165a5.728,5.728,0,0,1,2.157-1.893,3.51,3.51,0,0,1,1.227-.317C592.088,191.434,589.792,214.36,589.792,214.36Z" transform="translate(-573.656 -190.294)"/><path class="an" d="M587.021,214.523l-1.875-.012-8.6-.024s.9-14.512,5.064-20.165a5.728,5.728,0,0,1,2.157-1.893C588.865,195.13,587.088,213.844,587.021,214.523Z" transform="translate(-573.656 -190.476)"/></g><g transform="translate(468.191 226.917)"><path class="bf" d="M602.624,294.959,601.6,299.7l-110.288-.511-.017-.073-1.15-4.96,42.554.3,57.278.408Z" transform="translate(-490.147 -294.157)"/><path class="bg" d="M627.545,295.15c.371.021,11.167.531,11.167.531v3.866l-11.16-1.532Z" transform="translate(-539.511 -294.514)"/><path class="bh" d="M533.767,299.117H491.3l-1.15-4.96,43.765.729Z" transform="translate(-490.147 -294.157)"/><path class="bi" d="M657.391,300.1l.437-3.866-.292-.438-11.233-.218-.875,2.99.339-3.3,12.644.091Z" transform="translate(-545.936 -294.556)"/></g><g transform="translate(525.523 201.824)"><path class="bj" d="M596.366,279.676l-15.746.051-.981,0h-.012l1.9-23.852.592-.41.356-.247,12.181.511.176,2.468Z" transform="translate(-579.627 -255.077)"/><g transform="translate(0.012 0)"><path class="bk" d="M596.426,280.134l-14.5.048.431-5.842v-.016l1.268-17.166,11.257.546.039.571Z" transform="translate(-580.464 -255.772)"/><path class="bl" d="M595.163,258.276l-.463-.388h-1.021l-.219,10.8-.219-10.869-.583-.073-1.386.073-.146,13.713-.438-13.859-1.969-.146-.51,13.786.146-13.786h-.949l-1.313.146-.948,12.546.51-12.619-.8-.073-.656.146-1.6,16.655,1.268-17.166,11.257.546Z" transform="translate(-580.706 -255.772)"/><path class="bm" d="M586,275.921l.138-.311-.438-3.064-1.386-1.385-.369.362.24,4.16.64.438Z" transform="translate(-581.191 -260.803)"/><path class="bn" d="M582.479,255l-1.852,24.5-.981,0,1.885-23.852Z" transform="translate(-579.646 -254.995)"/><path class="bo" d="M586,274.38l.437-.146.087.146-.014,1.386-.121.11h-.317Z" transform="translate(-581.93 -261.907)"/><path class="bp" d="M586.264,274.418l.125-.07.146.073v1.386Z" transform="translate(-582.023 -261.948)"/></g></g></g></g></svg>