<svg xmlns="http://www.w3.org/2000/svg" xmlns:xlink="http://www.w3.org/1999/xlink" width="705" height="294.975" viewBox="0 0 705 294.975"><defs><style>.a{stroke:#707070;fill:url(#a);}.a,.aj,.u{opacity:0.1;}.b{fill:url(#b);}.c{fill:#8e4343;opacity:0.61;}.ac,.ae,.al,.an,.ar,.as,.at,.ax,.ay,.bj,.bk,.by,.c,.ce,.i,.q,.r,.u,.w{mix-blend-mode:color-dodge;}.ac,.ae,.ai,.aj,.ak,.al,.am,.an,.ap,.ar,.as,.at,.ax,.ay,.ba,.bb,.bf,.bi,.bj,.bk,.bl,.bm,.bn,.bt,.bu,.bv,.by,.c,.cc,.ce,.g,.i,.m,.n,.q,.r,.s,.u,.v,.w{isolation:isolate;}.d{fill:url(#c);}.ah,.am,.at,.au,.cf,.e,.l,.w{fill:#fff;}.e,.m{opacity:0.3;}.f{fill:#4c4b50;}.g{fill:#006629;}.ab,.g{opacity:0.26;}.ai,.aj,.am,.ap,.ba,.bb,.bf,.bi,.bl,.bm,.bn,.bt,.bu,.g,.n,.s,.v{mix-blend-mode:multiply;}.h{fill:#029807;}.i{fill:#00702d;}.az,.i{opacity:0.28;}.j{fill:#104412;opacity:0.27;}.k{fill:url(#d);}.l{opacity:0.21;}.n,.y{opacity:0.19;}.o{fill:#ffedb2;}.p{fill:#ffeb67;}.q{fill:#d87b7b;opacity:0.94;}.r{fill:#cc3922;}.s{fill:#ffc88a;opacity:0.22;}.t{fill:#ff5762;}.u{fill:#dedede;}.aj,.v{fill:#5b2b4b;}.v{opacity:0.16;}.av,.ce,.w{opacity:0.39;}.x{fill:#eb2525;}.al,.an,.av,.bj,.y{fill:#ff667c;}.z{fill:#98131c;}.aa{fill:#9e3855;}.ab{fill:#f66;}.ac{fill:#df2450;opacity:0.25;}.ad{fill:#0d0d0d;opacity:0.05;}.ae{fill:#7a5045;}.ae,.an{opacity:0.36;}.af{fill:#740024;opacity:0.7;}.ag,.be{fill:#521437;}.ag{opacity:0.73;}.ai{fill:#5b1b02;opacity:0.32;}.ak{fill:#ffc061;mix-blend-mode:darken;}.al{opacity:0.72;}.am{opacity:0.2;}.ao{fill:#ff727c;}.ap,.bn,.bt,.bu{fill:#e54c91;}.ap{opacity:0.55;}.aq{fill:#b22932;}.ar{opacity:0.37;}.as{fill:#d1185b;opacity:0.42;}.at,.au{opacity:0.91;}.aw{fill:#27140a;opacity:0.54;}.ax{fill:#680951;opacity:0.31;}.ay{fill:#63141e;}.ba{fill:#ff83b6;opacity:0.45;}.bb{fill:#f67823;}.bb,.bf,.bn{opacity:0.44;}.bc{fill:#fff78d;}.bd{fill:#946441;}.bf{fill:#ec5e0c;}.bg{fill:#a17350;}.bh{fill:url(#e);}.bi{fill:#ffb98a;}.bl,.bm{fill:#67610e;}.bl{opacity:0.33;}.bo{fill:#ffe783;}.bp{fill:#94603a;}.bq{fill:#7e4938;}.br{fill:#c99645;}.bs{fill:#d43d52;}.bt,.cf{opacity:0.18;}.bu{opacity:0.8;}.bv{opacity:0.84;fill:url(#f);}.bv,.cc{mix-blend-mode:screen;}.bw{fill:#946652;}.bx{fill:#580a0a;opacity:0.29;}.by{fill:#ff9964;}.by,.bz{opacity:0;}.bz{fill:url(#g);}.ca{fill:url(#h);}.cb{fill:#b9b9b9;}.cc{fill:#bdffeb;}.cd{fill:url(#i);}.ce{fill:#b4d15d;}.cg{stroke:none;}.ch{fill:none;}</style><radialGradient id="a" cx="0.5" cy="0.5" r="0.5" gradientUnits="objectBoundingBox"><stop offset="0"/><stop offset="1" stop-color="#545454" stop-opacity="0"/></radialGradient><linearGradient id="b" x1="0.5" x2="0.5" y2="1" gradientUnits="objectBoundingBox"><stop offset="0" stop-color="#6dff89"/><stop offset="1" stop-color="#84d995"/></linearGradient><linearGradient id="c" x1="0.35" y1="0.113" x2="0.5" y2="1.084" gradientUnits="objectBoundingBox"><stop offset="0" stop-color="#4aff6d"/><stop offset="1" stop-color="#16be37"/></linearGradient><linearGradient id="d" x1="0.5" x2="0.5" y2="1" gradientUnits="objectBoundingBox"><stop offset="0" stop-color="#4aff6d"/><stop offset="1" stop-color="#00b706"/></linearGradient><linearGradient id="e" x1="7.681" y1="0.941" x2="3.684" y2="0.895" gradientUnits="objectBoundingBox"><stop offset="0" stop-color="#ff8865"/><stop offset="1" stop-color="#ffd95e"/></linearGradient><linearGradient id="f" y1="0.5" x2="1" y2="0.5" gradientUnits="objectBoundingBox"><stop offset="0" stop-color="#a44d25"/><stop offset="1" stop-color="#db984e"/></linearGradient><linearGradient id="g" y1="0.5" x2="1" y2="0.5" gradientUnits="objectBoundingBox"><stop offset="0" stop-color="#682837"/><stop offset="1" stop-color="#7c4437"/></linearGradient><linearGradient id="h" x1="2.571" y1="0.48" x2="1.409" y2="0.492" xlink:href="#g"/><linearGradient id="i" x1="0.5" y1="0" x2="0.5" y2="1" xlink:href="#c"/></defs><g transform="translate(-240 -427.025)"><g class="a" transform="translate(255 607)"><ellipse class="cg" cx="337.5" cy="50" rx="337.5" ry="50"/><ellipse class="ch" cx="337.5" cy="50" rx="337" ry="49.5"/></g><g transform="translate(-726 39)"><g transform="translate(1164.539 580.97)"><path class="b" d="M-9202.538-1809.963a309.9,309.9,0,0,1-45.336,0c-17.26-1.042-78.292-16.017-57.212-33.991s322.248-8.931,359.224-8.6,54.152,26.746,50.237,32.092-21.382,5.12-31.619,5.722c-17.165,2.108-21.675.9-46.669,0-16.895-1.3-54.65-25.712-69.872-24.693-27.7-1.2-34.931,0-27.7,4.517s32.732,27.126,10.539,24.958S-9197.63-1810.3-9202.538-1809.963Z" transform="translate(9309.46 1855.12)"/><path class="c" d="M-9283.327-1847.731c37.22-.966,33.732.965,46.092,0s30.742,3.25,34.33,15-52.7,4.517-52.7,4.517S-9320.546-1846.765-9283.327-1847.731Z" transform="translate(9594.757 1858.951)"/><path class="c" d="M-9279.4-1847.731c48.056-.966,65.208.965,81.169,0s20.061,5.112,24.692,16.863-79.2,5.094-79.2,5.094S-9327.456-1846.765-9279.4-1847.731Z" transform="translate(9315.467 1858.951)"/></g><g transform="translate(1215.275 473.02)"><g transform="translate(0 0)"><path class="d" d="M70.134,360.176a15.6,15.6,0,0,1-.8,4.349,22.257,22.257,0,0,1-7.493,10.1l-.007.007a40.768,40.768,0,0,1-19.8,8.07c-14.582,1.926-23.164-9.866-25.955-24.455s5.149-20.164,7.507-29.6-2.567-9.866-2.784-23.38c-.144-9.16,7.486-15.629,14.561-18.665a20.034,20.034,0,0,1,8.82-1.926,25.079,25.079,0,0,1,6.375,1.327c19.6,6.974,12.2,37.263,11.64,49.084C61.768,344.3,70.559,348.8,70.134,360.176Z" transform="translate(-15.489 -284.637)"/><path class="e" d="M77.815,360.176a15.6,15.6,0,0,1-.8,4.349,22.257,22.257,0,0,1-7.493,10.1c7.169-8.142.2-21.095-4.515-29.878s-.325-22.473-2.726-41.1S43.04,286.594,43.04,286.594a20.034,20.034,0,0,1,8.82-1.926,25.079,25.079,0,0,1,6.375,1.327c19.6,6.974,12.2,37.263,11.64,49.084C69.45,344.3,78.241,348.8,77.815,360.176Z" transform="translate(-23.171 -284.637)"/></g><path class="f" d="M47.8,335.428a.7.7,0,0,1,1.395-.058c.454,4.233.87,9.034.87,12.372,0,7.312-.644,22.971,0,30.479s0,44.618,0,44.618H46.63s-1.287-18.448-1.287-23.6.733-19.415,0-24.776c-1.716-12.548-8.5-15.469-10.991-19.1a.346.346,0,0,1,.454-.5c2.367,1.3,7.364,4.3,8.82,7.052a61.116,61.116,0,0,1,3.218,7.293Z" transform="translate(-20.731 -298.608)"/></g><g transform="translate(1482.844 573.987)"><path class="g" d="M267.553,407a141.353,141.353,0,0,0,15.724,2.006c1.567.142,3.132.282,4.7.376a80.015,80.015,0,0,0,11.595-.147,18.741,18.741,0,0,0,9.238-1.273,2.742,2.742,0,0,0,1.746-1.475c.236-.753-.559-1.733-1.251-1.354a7.065,7.065,0,0,0,2.8-1.8,10.366,10.366,0,0,0-6.413-2.379c-1.542-.023-3.126.3-4.608-.133a21.423,21.423,0,0,1-2.282-.994,16.194,16.194,0,0,0-6.783-.843c-4.4.116-8.795.418-13.189.721l-9.267.64a5.133,5.133,0,0,0-2.8.744,2.546,2.546,0,0,0,2.95,4.148" transform="translate(-247.925 -385.711)"/><g transform="translate(0 4.007)"><path class="h" d="M269.242,390.58a5.472,5.472,0,0,1,5.332-.331,3.194,3.194,0,0,0,.811.369,3.844,3.844,0,0,0,.871.007,3.022,3.022,0,0,1,1.9.631,2.431,2.431,0,0,0,.725.481,2.79,2.79,0,0,0,.993-.022,2.376,2.376,0,0,1,2.444,2.08.743.743,0,0,0,.115.431c.154.182.437.137.676.126a1.773,1.773,0,0,1,1.789,1.633,2.444,2.444,0,0,1,2,2.572,3.661,3.661,0,0,1-4.512,3.523,3.178,3.178,0,0,1-1.966,1.495,9.446,9.446,0,0,1-2.516.281l-6.378.133a21.666,21.666,0,0,1-5.251-.317,15.536,15.536,0,0,1-3.719-1.446,2.3,2.3,0,0,1-1.213-1.1c-.192-.524.2-1.259.756-1.159a.7.7,0,0,1,.282-.836,2.028,2.028,0,0,1,.911-.276,2.332,2.332,0,0,1,.906-2.854,4.614,4.614,0,0,0,2.348-2.394A7.66,7.66,0,0,1,269.242,390.58Z" transform="translate(-261.29 -389.702)"/><path class="i" d="M280.712,397.568a1.307,1.307,0,0,0-1.665-1.322,4.818,4.818,0,0,0-2.934-2.789,2.141,2.141,0,0,0-1.17-.107,2.754,2.754,0,0,0-.984.554,4.746,4.746,0,0,0-1.823,2.07.81.81,0,0,0-.758-.9,1.7,1.7,0,0,0-1.205.5,4.019,4.019,0,0,0-1.31,2.264,2.041,2.041,0,0,0-1.875.924,6.006,6.006,0,0,0-.809,2.034.827.827,0,1,0-.928,1.37,1.649,1.649,0,0,0,.772.212,20.352,20.352,0,0,0,3.688.17,6.9,6.9,0,0,0,3.473-1.128,3.355,3.355,0,0,0,3.277.913,4,4,0,0,1,.714-.182,4.407,4.407,0,0,1,.924.1,2.841,2.841,0,0,0,1.991-.511,1.075,1.075,0,0,1,.464-.248,1.014,1.014,0,0,1,.433.082,3.768,3.768,0,0,0,1.59.159,1.72,1.72,0,0,0,.988-.386c.656-.606-.1-1.568-.305-2.256A2.118,2.118,0,0,0,280.712,397.568Z" transform="translate(-261.589 -390.001)"/></g><g transform="translate(11.857)"><path class="j" d="M272.23,390.909a7.529,7.529,0,0,1,7.335-.456,4.4,4.4,0,0,0,1.115.507,5.29,5.29,0,0,0,1.2.01,4.157,4.157,0,0,1,2.614.868,3.346,3.346,0,0,0,1,.662,3.839,3.839,0,0,0,1.366-.03,3.268,3.268,0,0,1,3.362,2.862,1.022,1.022,0,0,0,.158.593c.212.25.6.188.93.173a2.439,2.439,0,0,1,2.462,2.247c1.649.083,2.766,1.889,2.748,3.539a5.037,5.037,0,0,1-6.207,4.847,4.372,4.372,0,0,1-2.705,2.057,13,13,0,0,1-3.462.386l-8.775.183a29.81,29.81,0,0,1-7.224-.437,21.38,21.38,0,0,1-5.116-1.99,3.162,3.162,0,0,1-1.669-1.514c-.264-.722.281-1.732,1.04-1.595a.96.96,0,0,1,.387-1.151,2.788,2.788,0,0,1,1.253-.38,3.208,3.208,0,0,1,1.246-3.926,6.347,6.347,0,0,0,3.23-3.293A10.539,10.539,0,0,1,272.23,390.909Z" transform="translate(-261.29 -388.495)"/><path class="k" d="M273.7,391.071a8.538,8.538,0,0,1,8.318-.517,4.981,4.981,0,0,0,1.265.575,6,6,0,0,0,1.359.011,4.715,4.715,0,0,1,2.965.984,3.794,3.794,0,0,0,1.13.751,4.352,4.352,0,0,0,1.549-.034,3.706,3.706,0,0,1,3.813,3.245,1.159,1.159,0,0,0,.179.672c.24.283.683.213,1.054.2a2.766,2.766,0,0,1,2.791,2.548c1.87.094,3.136,2.142,3.116,4.013a5.711,5.711,0,0,1-7.039,5.5,4.958,4.958,0,0,1-3.068,2.332,14.739,14.739,0,0,1-3.926.438l-9.951.208a33.8,33.8,0,0,1-8.192-.5,24.247,24.247,0,0,1-5.8-2.256,3.586,3.586,0,0,1-1.893-1.717c-.3-.818.319-1.964,1.179-1.808a1.089,1.089,0,0,1,.439-1.3,3.161,3.161,0,0,1,1.421-.431,3.638,3.638,0,0,1,1.414-4.453c2.075-1.23,2.568-1.63,3.663-3.734A11.95,11.95,0,0,1,273.7,391.071Z" transform="translate(-260.287 -389.703)"/><path class="l" d="M289.57,399.954a2.038,2.038,0,0,0-2.6-2.063,7.517,7.517,0,0,0-4.577-4.351,3.342,3.342,0,0,0-1.826-.167,4.3,4.3,0,0,0-1.535.864,7.405,7.405,0,0,0-2.844,3.229,1.264,1.264,0,0,0-1.182-1.408,2.651,2.651,0,0,0-1.88.774,6.27,6.27,0,0,0-2.045,3.533,3.184,3.184,0,0,0-2.926,1.441,9.37,9.37,0,0,0-1.262,3.173,1.291,1.291,0,1,0-1.448,2.138,2.574,2.574,0,0,0,1.2.331,31.759,31.759,0,0,0,5.755.265,10.76,10.76,0,0,0,5.418-1.76,5.234,5.234,0,0,0,5.112,1.425,6.246,6.246,0,0,1,1.115-.283,6.867,6.867,0,0,1,1.442.16,4.432,4.432,0,0,0,3.106-.8,1.677,1.677,0,0,1,.724-.386,1.585,1.585,0,0,1,.675.127,5.879,5.879,0,0,0,2.481.247,2.684,2.684,0,0,0,1.541-.6c1.023-.946-.156-2.447-.476-3.52C292.978,400.429,291.5,399.73,289.57,399.954Z" transform="translate(-258.733 -388.15)"/></g></g><g transform="translate(1238.458 388.025)"><g class="m" transform="translate(0 199.103)"><path d="M600.85,304.983c0,2.774-37.79,5.023-84.407,5.023s-84.407-2.249-84.407-5.023,37.79-5.022,84.407-5.022S600.85,302.21,600.85,304.983Z" transform="translate(-432.035 -295.273)"/><path class="n" d="M565.095,294.673l.412,7.11,43.28,2.266-44.413-1.133Z" transform="translate(-421.089 -294.673)"/><ellipse cx="46.783" cy="2.422" rx="46.783" ry="2.422" transform="translate(131.978 5.899)"/><path d="M562.012,309.32c0,.967-8.857,1.751-19.784,1.751s-19.785-.784-19.785-1.751,8.858-1.752,19.785-1.752S562.012,308.353,562.012,309.32Z" transform="translate(-423.881 -293.814)"/><path d="M667.567,307.053c0,.568-3.852,1.03-8.6,1.03s-8.605-.462-8.605-1.03,3.854-1.031,8.605-1.031S667.567,306.484,667.567,307.053Z" transform="translate(-415.363 -293.917)"/><path d="M667.053,310.448c0,.256-2.007.463-4.483.463s-4.482-.207-4.482-.463,2.007-.464,4.482-.464S667.053,310.192,667.053,310.448Z" transform="translate(-414.849 -293.653)"/></g><path class="o" d="M701.5,157.022,698.1,176.386l-.653,3.731-6.434,36.7-.653,3.731-.561,3.2-.653,3.731-8.186,46.7-1.1,6.261-.285,1.629-.653,3.732-4.264,24.326-178.612-.971L481.723,178.635l152.751,1.093-2.186-27.078Z" transform="translate(-425.526 -103.96)"/><path class="p" d="M566.987,188.336l-2.543,34.184v84.642l-68.482-.375L483.054,190Z" transform="translate(-425.437 -101.584)"/><path class="q" d="M566.987,188.326l-2.543,34.185v84.643l-68.482-.376L483.054,189.993Z" transform="translate(-425.437 -101.585)"/><path class="r" d="M623.57,160.43l.485,53.183.729,1.7v6.071l.728,1.093V235.59l-.971,1.942.971,41.648,1.215,6.8v23.469h19.818l.824-1.856v-2.307l.971-12.385.486-3.885-.525-.264.525-5.953,2.428-23.775.817-17.917,2.583-21.909.486-7.286v-4.735l3.4-47.355Z" transform="translate(-416.081 -103.483)"/><path class="s" d="M668.388,155.421,655.881,310.113l-22.677-.345,0-5.079-.032,5.3h-4.188l-.6-59.444-25.2-.539-.363.363-27.2.122-.365.365-10.806.468-32.055-.71-17.242-.607-9.228-.486L489.085,250.6l-.385-3.727,140.246.568.951-1.8.243-4.735-.47-2.307-1.428-.824L626.3,192.944l-59.638,2.1L552.065,196.7l-68.407,1.336-.683-5.828,150.3-3.12-.344-34.278Z" transform="translate(-425.442 -103.816)"/><g transform="translate(29.97 10.928)"><path class="t" d="M635.017,164.57l17.728,22.949-80.3.848-88.215.93-27.1.286,5.418-4.249,19.083-14.97,16.053-12.593s10.759-36.02,16.474-38.112l.039-.014a1.539,1.539,0,0,1,.287-.062,35.426,35.426,0,0,1,5.59.165c29.27,2.239,155.008,20.538,155.008,20.538L689.6,158.38l-54.214-3.4Z" transform="translate(-457.133 -117.094)"/><path class="u" d="M575.127,132.04,586.922,148.3l3.013.817L600.448,165.8l46.587-4.452,11.369-2.462-15.225-20.681-23.354-1.824-1.046-1.622-25.81-2.2.093.974Z" transform="translate(-449.276 -116.261)"/><path class="v" d="M572.448,188.367l-88.215.93-27.1.286,3.809-3.327,20.693-15.892,16.053-12.593s10.759-36.02,16.474-38.112l.039-.014a1.539,1.539,0,0,1,.287-.062,35.426,35.426,0,0,1,5.59.165l3.108,1.11,3.522,2.55,15.3,18.335-1.677,2.477,10.3,12.944,2.112,1.151,7.724,9.413-.365,1.457Z" transform="translate(-457.133 -117.094)"/><path class="w" d="M546.275,157.762H495.156s10.759-36.02,16.474-38.112c-5.181,3.871-13.7,38.759-10.16,34.955C506.327,149.384,546.275,157.762,546.275,157.762Z" transform="translate(-454.601 -117.086)"/><path class="x" d="M505.744,124.653l4.25-7.407h4.372l14.692,1.578,34.362,5.464,85.846,10.2v4.128l-84.875-9.471-35.7-4.857H516.065l-5.1-4.25-4.007,4.614Z" transform="translate(-453.896 -117.246)"/><path class="y" d="M543.107,129.472,553.9,141.707l12.957.95-11-11.033-5.692-.417-1.683-1.95Z" transform="translate(-451.408 -116.446)"/><path class="z" d="M461.5,190.8l-4.372-5.464,195.37-2.064-1.457,3.764Z" transform="translate(-457.133 -112.85)"/><path class="aa" d="M566.856,142.644l-1.353,1.849-11.815-1.6-10.58-13.437L553.9,141.694Z" transform="translate(-451.408 -116.433)"/><path class="aa" d="M564.1,143.554l7.41,1.883L583,163.2l12.352.906.747-1.893-12.266-.412-11.31-16.778Z" transform="translate(-450.01 -115.494)"/><path class="ab" d="M569.495,163.124l14.693,19.913,6.192-.971h7.649l-15.056-18.942-7.649.728-1.822-.728Z" transform="translate(-449.651 -114.191)"/><path class="aa" d="M553.689,145.761,567,162.945l14.336.021-.067-2.063-13.589.562Z" transform="translate(-450.703 -115.347)"/><path class="aa" d="M598.029,182.089l-.971,2.429s-5.586-.243-6.436-.243-7.407.972-7.407.972l-13.721-22.463,14.692,20.277a60.057,60.057,0,0,1,6.89-.971Z" transform="translate(-449.651 -114.214)"/><path class="aa" d="M575.073,132.045l11.778,18.092h2.914l9.592,16.271,3.522.85L615.632,187l15.3-.188.753-1.77-15.446.678-12.871-18.942,15.057-.485.85-2.428-18.8,2.025-9.987-15.915,13.852.047-16.979-1.338Z" transform="translate(-449.28 -116.261)"/><path class="ab" d="M603.876,165.515,614.8,182.271h13.974l-13-16.756h-4.25l2.428,4.614L610.8,166Z" transform="translate(-447.362 -114.032)"/><path class="ac" d="M574.891,144.345l9.139,16.5,11.419.35-13.386-16.687-1.091-.08,1.285,2.407-2.756-2.272Z" transform="translate(-449.292 -115.442)"/><path class="ad" d="M510.3,159.823l-5.586,11.414h12.628l-2.429,14.692,13.477-1.822v-3.4s.608,2.914,1.215,3.035,43.225,1.335,43.225,1.335l-11.17-15.784-2.186-.243-5.828-8.621-23.435-.607Z" transform="translate(-453.964 -114.411)"/><path class="ae" d="M523.5,124.987l15.907,16.877-1.214,1.093L547.18,156.8l12.264,12.385-1.093.607,15.421,16.392H581.3l-16.028-16.757h7.285l-26.348-28.048h3.4l-15.421-13.964-4.857-1.093Z" transform="translate(-452.713 -116.731)"/><path class="af" d="M522.885,139.089c1.285,5.1-1.072,10.1-5.267,11.156s-8.637-2.226-9.922-7.33,1.072-10.1,5.266-11.157S521.6,133.984,522.885,139.089Z" transform="translate(-453.789 -116.293)"/><path class="ag" d="M520.169,139.472c.994,3.944-.529,7.727-3.4,8.451s-6-1.888-7-5.831.528-7.727,3.4-8.451S519.176,135.528,520.169,139.472Z" transform="translate(-453.648 -116.162)"/><path class="ah" d="M523.5,124.987l13.114,16.027-1.335,1.943,11.414,16.271,1.625-1.277-10.125-14.993,1.214-.85Z" transform="translate(-452.713 -116.731)"/><path class="ah" d="M545.7,154.814,557.966,167.2l-1.093.607L572.294,184.2l-.729,1.943-6.193.121-2.549-4.128-9.714-15.906.85-1.093Z" transform="translate(-451.235 -114.745)"/><path class="ai" d="M510.639,119.637l5.1,4.492h13.6l42.134,5.707-41.405-7.528-14.085.243Z" transform="translate(-453.57 -117.087)"/><path class="aj" d="M651.632,155.5l-42.984-18.213-10.806,25.984L601,171.645h2.429l9.592,7.893,3.886-2.064,16.513,8.985,9.714-.121-17.485-22.949Z" transform="translate(-447.763 -115.912)"/></g><g transform="translate(57.654 130.53)"><path class="ak" d="M635.6,233.751v8.257l-2.4,1.563H564.442l-76.618-1.684-1.7-.485-3.036-10.807,4.318-1.136h0l.295-.077v.971l76.483,1.222,68.981,1.328,2.082.729Z" transform="translate(-483.089 -229.381)"/><path class="al" d="M635.249,233.626H564.685l-46.14-.972-24.892-.363-9.713-.972-.85-.729,4.318-1.136h.3v.893l76.483,1.222,68.981,1.328Z" transform="translate(-483.089 -229.376)"/><path class="am" d="M553.1,235.528h5.707l-.729,6.07h-4.007Z" transform="translate(-478.427 -228.972)"/><path class="an" d="M553.1,233.228l6.193.874.85,1.093-.365,6.557-.971,1.563h1.336l.607-1.077,1.579-7.407-1.039-1.457Z" transform="translate(-478.427 -229.125)"/></g><g transform="translate(199.112 0)"><path class="ao" d="M703.261,166.618,658.456,158.6l-.159.009-22.341,1.142-20.241,1.035,0,0c.309-.406,32.1-42.043,43.521-51.77a10.035,10.035,0,0,1,2.916-1.941,1.439,1.439,0,0,1,.429-.076,1.113,1.113,0,0,1,.315.05C669.563,108.967,703.261,166.618,703.261,166.618Z" transform="translate(-615.716 -107)"/><path class="ap" d="M627.433,166.7l30.844-2.571,31.759,4.92.731-5.176-34.081-6.786-32.624.762v5.673Z" transform="translate(-615.16 -103.665)"/><path class="aq" d="M615.716,157.569l1.456,2.307,7.164,1.457,34.684-1.227,32,5.6h9.932l2.307-2.307-44.8-8.014Z" transform="translate(-615.716 -103.778)"/><path class="ar" d="M700.593,166.618,655.788,158.6l2.792-1.822,13.236,2.857h.008c.424.046,12.586,2.617,17.718.907,5.464-1.822-24.649-48.449-26.713-50.877S659.916,107,659.916,107l.315.05C666.894,108.967,700.593,166.618,700.593,166.618Z" transform="translate(-613.047 -107)"/><path class="as" d="M655.788,155.4l.785,2.9,41.712,7.42,2.307-2.307-8.743-1.7-.363-1.093-14.45-2.793-1.093.365-18.091-3.036Z" transform="translate(-613.047 -103.794)"/><path class="at" d="M659.7,108.594,656.91,125.35l.607.607-2.307,13.235.729.971-2.429,15.178,2.429,3.157,2.793-1.821L658,139.192l.728-1.821.364-11.536.607-1.457Z" transform="translate(-613.199 -106.894)"/><path class="au" d="M640.738,133.1l8,.607v.972h-9.836s-7.043,7.406-7.77,9.228-.972,2.55-.972,2.55h8.742l.243,1.092-12.507.972-6.678,10.443,15.56-.608.431,1.394-20.241,1.035,0,0c.309-.406,32.1-42.043,43.521-51.77a10.035,10.035,0,0,1,2.916-1.941c-8.556,6.6-16.338,17.593-19.6,22.144C639.635,133.276,640.8,133.069,640.738,133.1Z" transform="translate(-615.716 -106.995)"/><path class="av" d="M638.079,144.6l7.529-9.592-6.8,11.049-10.661.426,10.175-.79Z" transform="translate(-614.888 -105.135)"/><path class="av" d="M646.681,132.985l7.649-15.057-5.585,15.057-2.064.971Z" transform="translate(-613.654 -106.272)"/><path class="aw" d="M676.094,130.633l-7.276-1.047-4.492-11.657,3.642,13.114,6.921.728Z" transform="translate(-612.479 -106.272)"/><path class="aw" d="M668.538,132.045l6.071,16.878,9.714.85.85-1.7-3.4-.485-.85-1.7.365,1.7-4.614.121-1.215-.85-6.436-14.207Z" transform="translate(-612.198 -105.332)"/><path class="aw" d="M660.015,118.84l-.243,10.928.607,1.215,6.557.243.728-1.457h-4.25l-.365-.729-2.671.365Z" transform="translate(-612.782 -106.212)"/><path class="aw" d="M661.708,132.956l.728,14.571,10.078,1.336.85-1.579-5.1-.364-3.764-1.457-.85.121Z" transform="translate(-612.653 -105.272)"/><path class="ab" d="M647.1,136.2l-6.8,12.628H644.8l.85-1.215,7.529.122,3.642-21.492h-4.007l-2.914,9.228Z" transform="translate(-614.078 -105.719)"/><path class="ab" d="M651.317,119.181l-4.735,12.506-5.707-.485,7.892-11.05Z" transform="translate(-614.041 -106.189)"/><path class="ah" d="M626.97,155.049h8.864l3.643-3.764-1.094,3.764,17.607-1.093,1.821,1.7-22.341,1.093-11.9-.85Z" transform="translate(-615.193 -104.051)"/><path class="ax" d="M615.716,157.569l1.456,2.307,42.012-1.579-.85-2.914Z" transform="translate(-615.716 -103.778)"/></g><path class="ay" d="M565.6,184.107l-1.458,4.007,55.005-1.457-.178-3.121Z" transform="translate(-420.038 -101.904)"/><g class="az" transform="translate(60.568 94.831)"><path class="ba" d="M486.793,195.911h13.357l1.335.787-1.335,6.5s-13.115-.59-13.357-.59-.972-.984-.972-.984Z" transform="translate(-485.821 -195.911)"/><path class="ba" d="M497.206,205.132v4.857h16.028v-3.4Z" transform="translate(-485.063 -195.297)"/><path class="ba" d="M509.283,284.7l-13.348.462-1.362-.741,1.11-6.54s13.125.139,13.369.129,1,.95,1,.95Z" transform="translate(-485.238 -190.453)"/><path class="ba" d="M520.675,263.205l-.168-4.854-16.018.553.117,3.4Z" transform="translate(-484.578 -191.753)"/><path class="ba" d="M556.755,297.911l-13.348.461-1.362-.74,1.11-6.54s13.126.138,13.369.129,1,.95,1,.95Z" transform="translate(-482.077 -189.573)"/></g><g transform="translate(71.627 89.421)"><g transform="translate(0 0)"><path class="bb" d="M497.234,230.44l3.69-.428,8.283-.017s-.085-25.633-3.7-35.048c-.822-2.145-2.644-4.072-3.86-4.1-5.973-.134-5.294,38.793-5.294,38.793Z" transform="translate(-496.18 -190.838)"/><path class="bc" d="M496.306,229.636l.555-.033,3.482-.21,7.841.012s-.032-25.651-3.645-35.065c-.823-2.146-1.823-3.474-3.04-3.5C494.946,190.691,496.306,229.636,496.306,229.636Z" transform="translate(-496.189 -190.839)"/><path class="bd" d="M497.976,228.6l2.561-.355,5.077-.7s.126-23-2.071-31.491c-.5-1.935-1.121-3.117-1.892-3.1C497.5,193.025,497.976,228.6,497.976,228.6Z" transform="translate(-496.071 -190.698)"/><path class="be" d="M501.542,227.97l4.248-.13s-.277-23.5-2.474-31.988C500.561,198.9,501.538,219.943,501.542,227.97Z" transform="translate(-495.844 -190.505)"/></g><g transform="translate(34.47 0.229)"><path class="bf" d="M529.39,230.353l3.692-.22,8.233.447s1.377-25.6-1.677-35.2c-.7-2.189-2.4-4.213-3.6-4.309-5.928-.468-7.475,38.431-7.475,38.431Z" transform="translate(-528.503 -191.052)"/><path class="bc" d="M528.507,229.5l.554,0,3.473-.015,7.792.451s1.431-25.611-1.622-35.21c-.7-2.19-1.613-3.571-2.82-3.666C529.378,190.543,528.507,229.5,528.507,229.5Z" transform="translate(-528.507 -191.053)"/><path class="bg" d="M530.4,228.446l2.576-.227,5.106-.453s1.26-22.967-.516-31.555c-.4-1.958-.966-3.169-1.736-3.191C531.682,192.9,530.4,228.446,530.4,228.446Z" transform="translate(-528.381 -190.922)"/><path class="be" d="M533.749,228.081h4.492s.882-23.482-.894-32.07C534.446,198.915,534.14,220.063,533.749,228.081Z" transform="translate(-528.158 -190.723)"/></g><g transform="translate(4.846 62.647)"><path class="bb" d="M501.9,289.236l3.622-.485,8.146-.151s-.431-25.627-4.112-34.981c-.838-2.132-2.656-4.029-3.851-4.036-5.876-.038-4.681,38.868-4.681,38.868Z" transform="translate(-500.72 -249.574)"/><path class="bc" d="M500.984,288.449l.545-.044,3.421-.266,7.711-.114s-.379-25.645-4.059-35c-.838-2.133-1.839-3.444-3.035-3.451C499.119,249.532,500.984,288.449,500.984,288.449Z" transform="translate(-500.733 -249.575)"/><path class="bg" d="M502.3,287.112l2.561-.356,5.077-.7s.126-23-2.071-31.491c-.5-1.935-1.121-3.118-1.891-3.1C501.824,251.54,502.3,287.112,502.3,287.112Z" transform="translate(-500.63 -249.449)"/><path class="be" d="M505.649,286.485l4.49-.131s-.277-23.5-2.474-31.987C504.91,257.411,505.163,278.592,505.649,286.485Z" transform="translate(-500.426 -249.256)"/></g><g transform="translate(32.948 63.678)"><path class="bb" d="M527.914,289.882l3.5-.266,7.8.343s1.357-25.587-1.516-35.139c-.654-2.178-2.26-4.18-3.4-4.261-5.613-.394-7.159,38.487-7.159,38.487Z" transform="translate(-527.077 -250.541)"/><path class="bh" d="M527.08,289.04l.524-.01,3.289-.058,7.381.352s1.408-25.6-1.464-35.154c-.654-2.178-1.521-3.546-2.664-3.626C527.985,250.113,527.08,289.04,527.08,289.04Z" transform="translate(-527.08 -250.542)"/><path class="bg" d="M528.422,287.771l2.579-.185,5.112-.367s1.649-22.942.018-31.558c-.371-1.965-.912-3.185-1.682-3.221C530.3,252.247,528.422,287.771,528.422,287.771Z" transform="translate(-526.991 -250.415)"/><path class="be" d="M531.813,287.384l4.443.157s1.28-23.465-.351-32.081C532.956,258.315,532.342,279.374,531.813,287.384Z" transform="translate(-526.765 -250.214)"/></g></g><g transform="translate(65.183 94.224)"><path class="bi" d="M561.815,248.164H575.17l1.336.788-1.336,6.5s-13.113-.591-13.356-.591-.972-.983-.972-.983Z" transform="translate(-485.44 -191.825)"/><path class="bi" d="M572.227,257.386v4.857h16.028v-3.4Z" transform="translate(-484.682 -191.211)"/><path class="bi" d="M568.147,276.411l-.168-4.854-16.018.553.117,3.4Z" transform="translate(-486.032 -190.267)"/><path class="bi" d="M491.337,246l-1.19,4.613h11.666l.476-4.081L500.98,246Z" transform="translate(-490.147 -191.969)"/><path class="bj" d="M526.978,251.352l-.707,6.313H511.436l.177-5.585,2.3-.728Z" transform="translate(-488.73 -191.612)"/><path class="bj" d="M556.918,217.541l-.706,3.035H541.376l.177-2.685,2.3-.35Z" transform="translate(-486.736 -193.864)"/><path class="bj" d="M525.042,210.027l-.706,3.035H509.5l.176-2.685,2.3-.35Z" transform="translate(-488.859 -194.364)"/><path class="bj" d="M617.874,224.824l-.571,5.1H605.314l.143-4.513,1.855-.59Z" transform="translate(-482.479 -193.379)"/><path class="bj" d="M563.408,195.342l-.971,7.164.971.85h13.235l1.822-6.557Z" transform="translate(-485.334 -195.342)"/><path class="bi" d="M562.376,204.222l-1.191,4.614h11.666l.477-4.082-1.31-.532Z" transform="translate(-485.417 -194.75)"/><path class="bj" d="M582.533,214.126l-.706,6.314H566.991l.177-5.586,2.3-.728Z" transform="translate(-485.031 -194.091)"/></g><g class="bk" transform="translate(208.806 61.926)"><path class="bl" d="M626.054,199.884l8.488-.33V204.5l-.824.659h-8.324s-.771-1.186-.549-1.418A38.363,38.363,0,0,0,626.054,199.884Z" transform="translate(-624.804 -162.763)"/><path class="bm" d="M627.417,244.379l8.487-.33v4.945l-.825.659h-8.322s-.772-1.186-.551-1.416A38.456,38.456,0,0,0,627.417,244.379Z" transform="translate(-624.714 -159.8)"/><path class="bj" d="M640.394,252.005l8.488-.328v4.945l-.823.659h-8.324s-.771-1.186-.549-1.416A38.506,38.506,0,0,0,640.394,252.005Z" transform="translate(-623.849 -159.292)"/><path class="bj" d="M631.307,205.5v3.213l9.476-.329V205.5Z" transform="translate(-624.371 -162.367)"/><path class="bj" d="M625.187,190.332l-.365,5.95.122,1.821,13.356-.85v-6.921Z" transform="translate(-624.803 -163.377)"/><path class="bm" d="M646.681,165.06h9.592l13.721,2.186-.85,3.642-13.429-.334-9.034.334Z" transform="translate(-623.348 -165.06)"/><path class="bm" d="M642.24,218.224h9.593l13.721,2.186-.85,4.007-13.429-.7-9.035.334Z" transform="translate(-623.643 -161.52)"/><path class="bj" d="M671.123,211.815l-1.072,6.262-14.81-.862.5-5.565,2.334-.594Z" transform="translate(-622.778 -161.997)"/><path class="bj" d="M668.915,266.612l-1.1,6.261-5.137-.3.5-5.565,2.335-.595Z" transform="translate(-622.282 -158.311)"/><path class="bj" d="M668.114,274.039l-.653,3.732-13.53-.787.37-3.313,2.318-.3Z" transform="translate(-622.865 -157.848)"/><path class="bj" d="M677.255,219.33l-.653,3.731-6.441-.375.371-3.313,2.317-.3Z" transform="translate(-621.784 -161.463)"/><path class="bj" d="M678.142,212.816l-.653,3.731-2.4-.14.37-3.313,2.318-.3Z" transform="translate(-621.456 -161.881)"/><path class="bj" d="M684.965,174.916l-.653,3.731-5.262-.306.37-3.313,2.317-.3Z" transform="translate(-621.192 -164.416)"/><path class="bm" d="M674.754,168.975l-1.455,4.538,11.646.673.711-4.047-1.276-.607Z" transform="translate(-621.575 -164.799)"/></g><g transform="translate(236.024 67.752)"><g transform="translate(8.256 0)"><path class="bn" d="M675.511,209.986l-5.687-.577-11.76-.757s3.124-25.282,9.35-34.363c1.42-2.07,4.225-3.838,5.951-3.764,8.472.363,2.914,39.1,2.914,39.1Z" transform="translate(-658.064 -170.522)"/><path class="bo" d="M676.278,209.623l-.783-.081-4.9-.5L659.317,207.9s3.245-25.055,9.471-34.136c1.419-2.069,2.992-3.31,4.716-3.236C682.8,170.925,676.278,209.623,676.278,209.623Z" transform="translate(-657.981 -170.522)"/><path class="bp" d="M674.335,208.279l-4.234-.529-8.393-1.05s2.417-22.956,7.051-31.277c1.057-1.9,2.227-3.033,3.512-2.965C679.193,172.824,674.335,208.279,674.335,208.279Z" transform="translate(-657.821 -170.393)"/><path class="be" d="M670.1,207.565l-8.393-1.049s2.417-22.956,7.051-31.277C673.011,178.464,671.024,199.556,670.1,207.565Z" transform="translate(-657.821 -170.208)"/></g><g transform="translate(0 63.142)"><path class="bn" d="M666.909,267.241l-5.405-.548-11.181-.721s2.969-24.036,8.889-32.67c1.349-1.968,4.017-3.649,5.657-3.578,8.054.345,2.771,37.171,2.771,37.171Z" transform="translate(-650.323 -229.722)"/><path class="bo" d="M667.639,266.895l-.743-.075-4.663-.474-10.718-1.089s3.086-23.82,9.005-32.454c1.349-1.967,2.844-3.146,4.484-3.076C673.84,230.1,667.639,266.895,667.639,266.895Z" transform="translate(-650.244 -229.722)"/><path class="bq" d="M665.792,265.618l-4.025-.5-7.98-1s2.3-21.824,6.7-29.734c1-1.8,2.117-2.884,3.338-2.818C670.41,231.911,665.792,265.618,665.792,265.618Z" transform="translate(-650.092 -229.599)"/><path class="be" d="M661.767,264.94l-7.98-1s2.3-21.824,6.7-29.734C664.532,237.273,662.645,257.325,661.767,264.94Z" transform="translate(-650.092 -229.423)"/></g></g><g transform="translate(152.522 87.866)"><path class="bb" d="M599.749,231.487l-9.008.528-18.707-.223s1.375-26.687,9.883-37.281c1.939-2.415,6.1-4.793,8.815-5.058,13.352-1.3,10.038,41.389,10.038,41.389Z" transform="translate(-572.034 -189.377)"/><path class="bo" d="M600.665,230.817l-1.239.074-8.143-.262-17.381.128s1.6-26.477,10.108-37.071c1.938-2.416,4.233-4.005,6.952-4.27C605.612,187.987,600.665,230.817,600.665,230.817Z" transform="translate(-571.91 -189.38)"/><path class="bg" d="M598.6,229.273l-4.613-.031-3.122-.02-14.312-.041s1.5-24.158,8.43-33.568a9.535,9.535,0,0,1,3.59-3.151,5.843,5.843,0,0,1,2.042-.527C602.417,191.109,598.6,229.273,598.6,229.273Z" transform="translate(-571.733 -189.211)"/><path class="be" d="M593.982,229.208l-3.122-.02-14.312-.041s1.5-24.158,8.43-33.568a9.536,9.536,0,0,1,3.59-3.151C597.051,196.926,594.093,228.077,593.982,229.208Z" transform="translate(-571.733 -189.177)"/></g><g transform="translate(65.183 199.619)"><path class="br" d="M492.029,301.955l-1.855.928h80.582l43.485,1.236H657.83l.619-.927H677.1l-1.649-.825L655.1,301.355Z" transform="translate(-490.146 -293.678)"/><path class="bs" d="M677.381,295.493l-1.7,7.892-183.591-.85-.028-.121-1.914-8.257,70.838.505,95.347.679Z" transform="translate(-490.147 -294.157)"/><path class="bt" d="M627.545,295.15c.618.034,18.589.883,18.589.883v6.436l-18.578-2.55Z" transform="translate(-480.999 -294.091)"/><path class="bu" d="M562.758,302.414h-70.7l-1.914-8.257L563,295.371Z" transform="translate(-490.147 -294.157)"/><path class="bv" d="M665.342,303.311l.728-6.435-.485-.729-18.7-.364-1.456,4.978.565-5.493,21.048.151Z" transform="translate(-479.808 -294.083)"/></g><g transform="translate(160.62 157.849)"><path class="bw" d="M607.491,295.929l-26.212.085-1.633.006h-.02l3.157-39.705.986-.682.593-.41,20.278.85.294,4.108Z" transform="translate(-579.627 -254.98)"/><g transform="translate(0.02 0)"><path class="bx" d="M606.066,295.4l-24.142.079.718-9.724,0-.026,2.11-28.575,18.739.909.066.951Z" transform="translate(-579.494 -254.851)"/><path class="by" d="M603.514,259.018l-.771-.646h-1.7l-.365,17.971-.365-18.092-.971-.122-2.307.122-.243,22.828-.729-23.07-3.278-.243-.85,22.948.243-22.948H590.6l-2.185.243-1.579,20.885.85-21.007-1.335-.121-1.093.243L582.6,285.733l2.11-28.575,18.739.909Z" transform="translate(-579.449 -254.851)"/><path class="bz" d="M587.367,279.085l.229-.517-.729-5.1-2.307-2.306-.614.6.4,6.925,1.065.728Z" transform="translate(-579.359 -253.919)"/><path class="ca" d="M584.362,255l-3.083,40.792-1.633.006,3.137-39.705Z" transform="translate(-579.646 -254.995)"/><path class="cb" d="M586,274.477l.728-.243.145.243-.023,2.307-.2.183h-.528Z" transform="translate(-579.222 -253.714)"/><path class="cc" d="M586.264,274.464l.207-.116.243.121v2.307Z" transform="translate(-579.205 -253.706)"/></g></g></g><g transform="translate(1480.798 580.405)"><path class="cd" d="M540.847,371.012c0,11.73-2.51,12.93-5.606,12.93s-5.606-1.2-5.606-12.93,2.507-21.237,5.606-21.237S540.847,359.282,540.847,371.012Z" transform="translate(-529.635 -349.775)"/><path class="ce" d="M535.21,384.133a22.957,22.957,0,0,0,2.462-6.034c1.287-4.805,1.156-8.994-.293-9.354a.941.941,0,0,0-.4.007c.032-.156.064-.309.092-.463.895-4.888.428-9.053-1.045-9.305a.985.985,0,0,0-.226,0c.006-.236.012-.47.012-.711a23.49,23.49,0,0,0-1.274-8.132c-2.76,1.315-4.9,10.238-4.9,21.062C529.635,382.893,532.128,384.125,535.21,384.133Z" transform="translate(-529.635 -349.966)"/></g><g transform="translate(1392.091 580.701)"><path class="cd" d="M537.933,365.492c0,8.681-1.858,9.57-4.149,9.57s-4.149-.889-4.149-9.57,1.855-15.718,4.149-15.718S537.933,356.811,537.933,365.492Z" transform="translate(-529.635 -349.775)"/><path class="cf" d="M533.761,375.3a16.993,16.993,0,0,0,1.822-4.466c.953-3.556.855-6.656-.217-6.923a.7.7,0,0,0-.3,0c.023-.116.047-.229.068-.343.662-3.617.316-6.7-.773-6.887a.726.726,0,0,0-.167,0c0-.174.009-.348.009-.526a17.386,17.386,0,0,0-.943-6.019c-2.043.973-3.626,7.577-3.626,15.588C529.635,374.381,531.48,375.293,533.761,375.3Z" transform="translate(-529.635 -350.011)"/></g><g transform="translate(1462.198 579.27)"><path class="cd" d="M537.933,365.492c0,8.681-1.858,9.57-4.149,9.57s-4.149-.889-4.149-9.57,1.855-15.717,4.149-15.717S537.933,356.811,537.933,365.492Z" transform="translate(-529.635 -349.775)"/><path class="cf" d="M533.761,375.3a16.988,16.988,0,0,0,1.822-4.466c.953-3.556.855-6.656-.217-6.923a.7.7,0,0,0-.3,0c.023-.115.047-.229.068-.343.662-3.617.316-6.7-.773-6.887a.733.733,0,0,0-.167,0c0-.174.009-.348.009-.526a17.382,17.382,0,0,0-.943-6.019c-2.043.973-3.625,7.577-3.625,15.588C529.635,374.381,531.48,375.293,533.761,375.3Z" transform="translate(-529.635 -350.011)"/></g><g transform="translate(1403.537 580.405)"><path class="cd" d="M543.664,376.348c0,14.677-3.141,16.179-7.014,16.179s-7.014-1.5-7.014-16.179,3.137-26.573,7.014-26.573S543.664,361.671,543.664,376.348Z" transform="translate(-529.635 -349.775)"/><path class="ce" d="M536.61,392.674a28.739,28.739,0,0,0,3.081-7.55c1.611-6.013,1.446-11.253-.367-11.7a1.178,1.178,0,0,0-.506.008c.04-.2.08-.386.116-.579,1.12-6.116.535-11.328-1.308-11.643a1.233,1.233,0,0,0-.282,0c.007-.295.015-.588.015-.889a29.393,29.393,0,0,0-1.595-10.175c-3.454,1.645-6.13,12.81-6.13,26.353C529.635,391.122,532.754,392.664,536.61,392.674Z" transform="translate(-529.635 -349.922)"/></g></g></g></svg>