<svg xmlns="http://www.w3.org/2000/svg" xmlns:xlink="http://www.w3.org/1999/xlink" width="606.98" height="430.823" viewBox="0 0 606.98 430.823"><defs><style>.a,.k,.p{fill:none;stroke-miterlimit:10;}.a{stroke:#60a408;stroke-width:3px;}.b{fill:#f230f8;opacity:0.41;}.c{fill:url(#a);}.d{fill:url(#f);}.e{fill:#e9d417;opacity:0.78;}.f{fill:#fcf520;}.g{fill:#e4d71b;}.g,.r{opacity:0.57;}.h{fill:#fff454;}.i{fill:#f5cf38;}.j{fill:#c18010;}.k{stroke:#c18010;stroke-width:1.2px;}.l{fill:#d84312;opacity:0.34;}.m{fill:#ff7548;}.n{fill:#f55f38;mix-blend-mode:color-dodge;isolation:isolate;}.o{fill:#71220e;}.p{stroke:#71220e;stroke-linecap:round;stroke-width:2px;}.q,.x,.y{fill:#fff;}.q{opacity:0.86;}.r,.w{fill:#07653b;}.r,.s,.t,.u,.v,.w,.y{stroke:rgba(0,0,0,0);}.s,.u{fill:#28c858;}.s{opacity:0.62;}.t{opacity:0.67;}.t,.v{fill:url(#h);}.x{opacity:0.43;}</style><linearGradient id="a" x1="105.028" y1="-85.732" x2="106.101" y2="-85.732" gradientUnits="objectBoundingBox"><stop offset="0" stop-color="#f836ff"/><stop offset="0.219" stop-color="#ee6e0a"/><stop offset="0.453" stop-color="#f17b14"/><stop offset="0.694" stop-color="#f69024"/><stop offset="0.938" stop-color="#fdae3b"/><stop offset="1" stop-color="#ffb742"/></linearGradient><linearGradient id="f" x1="421.251" y1="-289.831" x2="422.215" y2="-290.096" gradientUnits="objectBoundingBox"><stop offset="0" stop-color="#002a1b"/><stop offset="0.442" stop-color="#022c1c"/><stop offset="0.698" stop-color="#0a3423"/><stop offset="0.905" stop-color="#18412e"/><stop offset="1" stop-color="#224b36"/></linearGradient><linearGradient id="h" x1="0.02" y1="0.489" x2="0.871" y2="0.489" gradientUnits="objectBoundingBox"><stop offset="0" stop-color="#e65925"/><stop offset="0.227" stop-color="#e75d25"/><stop offset="0.469" stop-color="#eb6a25"/><stop offset="0.719" stop-color="#f37f27"/><stop offset="0.972" stop-color="#fd9d28"/><stop offset="1" stop-color="#ffa129"/></linearGradient></defs><g transform="translate(-1213.642 -5698.5)"><g transform="translate(217.2 2742.178)"><path class="a" d="M729.325,203.776c-102.649-21.643-133.719,76.531-120.184,125.466S658.517,398.47,775.219,417.4" transform="translate(711.065 2945.954)"/><path class="a" d="M630.777,159.912c-48.277,44.7-59.574,63.934-44.329,106.6s100.928,63.276,103.242,90.8" transform="translate(805.076 3006.041)"/><g transform="translate(1358.783 3086.337)"><path class="b" d="M32.889,118.343C19.264,104.381,11,94.026,11.978,85.6c.464-4.075,2.974-7.518,7.686-10.528l.3-.192a48.631,48.631,0,0,1,4.782-2.591c-9.847.635-18.594-.261-22.5-4.431C-.238,65.2-.665,61.563.981,57.043,7.684,38.719,13.442,26.8,21.469,24.035c3.875-1.342,8.059-.564,12.811,2.379A70.546,70.546,0,0,1,46.062,36.2C39.44,24.476,34.356,12.025,37.569,5.26c1.564-3.307,4.793-5.039,9.6-5.152,19.51-.491,32.712.5,38.234,6.944,2.665,3.116,3.475,7.3,2.479,12.8-1.169,6.456-4.547,14.525-8.24,21.979,10.652-11.484,24.005-23.3,32.748-21.757,3.593.632,6.122,3.288,7.509,7.886,5.644,18.682,8.186,31.676,3.438,38.711a11.674,11.674,0,0,1-3.483,3.353,18.373,18.373,0,0,1-8.191,2.433c-6.8.61-15.933-.628-24.389-2.317,14.288,7.569,30.447,18.116,31.146,27.393.274,3.557-1.582,6.6-5.516,9.065-.086.054-.173.1-.264.164-16.69,10.1-28.647,15.781-36.642,12.92-3.856-1.382-6.64-4.611-8.5-9.882-2.563-7.26-3.586-17.967-3.942-27.459-3.718,14.909-9.817,33.308-18.109,38.493a10,10,0,0,1-2.242,1.046,8.307,8.307,0,0,1-2.506.395C38.054,122.272,35.438,120.959,32.889,118.343Z" transform="translate(0 13)"/><g transform="translate(20)"><path class="c" d="M566.447,401.162c-5.521-6.44-18.723-7.436-38.234-6.945-4.8.114-8.031,1.846-9.6,5.153-6.794,14.308,23.531,54.065,27.014,58.558a1.644,1.644,0,0,0,1.373.637,1.661,1.661,0,0,0,.8-.25,1.75,1.75,0,0,0,.514-.5c.719-1.119,17.659-27.6,20.6-43.85C569.922,408.466,569.112,404.277,566.447,401.162Z" transform="translate(-481.049 -394.109)"/><path class="c" d="M573.016,398.629c-15.6-2.747-45.892,37.033-49.3,41.576a1.654,1.654,0,0,0-.25,1.5,1.68,1.68,0,0,0,1.082,1.069c1.264.391,31.3,9.71,47.744,8.236a18.372,18.372,0,0,0,8.19-2.433,11.677,11.677,0,0,0,3.484-3.352c4.748-7.036,2.206-20.029-3.438-38.711C579.138,401.917,576.609,399.261,573.016,398.629Z" transform="translate(-460.631 -378.556)"/><path class="c" d="M526.066,407.412a1.659,1.659,0,0,0-1.51.132h0a1.646,1.646,0,0,0-.768,1.31c-.068,1.332-1.646,32.731,3.847,48.294,1.865,5.271,4.648,8.5,8.5,9.882,8,2.861,19.951-2.82,36.642-12.92.091-.059.177-.109.264-.164,3.934-2.46,5.789-5.507,5.517-9.064C577.366,429.078,531.314,409.59,526.066,407.412Z" transform="translate(-460.142 -347.349)"/><path class="c" d="M566.117,407.4c-1.3.236-31.8,5.762-45.847,14.54l-.3.191c-4.712,3.011-7.222,6.454-7.686,10.528-.973,8.422,7.286,18.778,20.911,32.74,3.356,3.443,6.826,4.63,10.305,3.534a9.966,9.966,0,0,0,2.242-1.046c13.712-8.573,21.425-53.274,22.3-58.59a1.655,1.655,0,0,0-1.919-1.9Z" transform="translate(-500.302 -347.054)"/><path class="c" d="M543.865,402.268c-4.753-2.943-8.936-3.72-12.811-2.379-8.027,2.77-13.785,14.685-20.488,33.008-1.646,4.521-1.219,8.154,1.273,10.819,10.824,11.57,58.935-2.065,64.388-3.657a1.705,1.705,0,0,0,.414-.186,1.65,1.65,0,0,0,.464-2.365C576.328,436.427,557.9,410.959,543.865,402.268Z" transform="translate(-509.585 -375.856)"/></g><path class="d" d="M537.037,409.484a7.863,7.863,0,1,1-10.833-2.5A7.862,7.862,0,0,1,537.037,409.484Z" transform="translate(-443.741 -352.682)"/></g><g transform="translate(1273.983 3116.685)"><path class="e" d="M32.889,118.344C19.263,104.381,11,94.026,11.977,85.6c.464-4.075,2.974-7.518,7.686-10.528.1-.064.2-.128.305-.191a48.66,48.66,0,0,1,4.783-2.592c-9.847.635-18.6-.261-22.5-4.431C-.238,65.2-.666,61.564.98,57.043,7.684,38.719,13.442,26.8,21.469,24.035c3.875-1.342,8.059-.564,12.812,2.379A70.55,70.55,0,0,1,46.061,36.2C39.44,24.476,34.356,12.024,37.568,5.26c1.564-3.306,4.793-5.039,9.6-5.152,19.51-.491,32.713.5,38.234,6.944,2.665,3.116,3.475,7.3,2.479,12.8-1.169,6.456-4.547,14.526-8.24,21.98,10.652-11.484,24.006-23.3,32.749-21.757,3.593.632,6.122,3.288,7.509,7.886,5.644,18.682,8.186,31.676,3.438,38.712a11.7,11.7,0,0,1-3.484,3.352,18.373,18.373,0,0,1-8.191,2.433c-6.8.61-15.932-.628-24.388-2.316,14.288,7.569,30.447,18.116,31.146,27.394.273,3.556-1.582,6.6-5.517,9.064-.086.054-.172.1-.264.164-16.69,10.1-28.647,15.781-36.642,12.92-3.856-1.382-6.639-4.612-8.5-9.883-2.563-7.26-3.587-17.965-3.943-27.457-3.718,14.909-9.817,33.307-18.11,38.491a9.981,9.981,0,0,1-2.242,1.046,8.3,8.3,0,0,1-2.506.4C38.053,122.272,35.438,120.959,32.889,118.344Z" transform="translate(0 13)"/><g transform="translate(13)"><path class="f" d="M566.447,401.162c-5.521-6.44-18.723-7.436-38.234-6.945-4.8.114-8.031,1.846-9.6,5.153-6.794,14.308,23.531,54.065,27.014,58.558a1.644,1.644,0,0,0,1.373.637,1.661,1.661,0,0,0,.8-.25,1.75,1.75,0,0,0,.514-.5c.719-1.119,17.659-27.6,20.6-43.85C569.922,408.466,569.112,404.277,566.447,401.162Z" transform="translate(-481.049 -394.109)"/><path class="f" d="M573.016,398.629c-15.6-2.747-45.892,37.033-49.3,41.576a1.654,1.654,0,0,0-.25,1.5,1.68,1.68,0,0,0,1.082,1.069c1.264.391,31.3,9.71,47.744,8.236a18.372,18.372,0,0,0,8.19-2.433,11.677,11.677,0,0,0,3.484-3.352c4.748-7.036,2.206-20.029-3.438-38.711C579.138,401.917,576.609,399.261,573.016,398.629Z" transform="translate(-460.631 -378.556)"/><path class="f" d="M526.066,407.412a1.659,1.659,0,0,0-1.51.132h0a1.646,1.646,0,0,0-.768,1.31c-.068,1.332-1.646,32.731,3.847,48.294,1.865,5.271,4.648,8.5,8.5,9.882,8,2.861,19.951-2.82,36.642-12.92.091-.059.177-.109.264-.164,3.934-2.46,5.789-5.507,5.517-9.064C577.366,429.078,531.314,409.59,526.066,407.412Z" transform="translate(-460.142 -347.349)"/><path class="f" d="M566.117,407.4c-1.3.236-31.8,5.762-45.847,14.54l-.3.191c-4.712,3.011-7.222,6.454-7.686,10.528-.973,8.422,7.286,18.778,20.911,32.74,3.356,3.443,6.826,4.63,10.305,3.534a9.966,9.966,0,0,0,2.242-1.046c13.712-8.573,21.425-53.274,22.3-58.59a1.655,1.655,0,0,0-1.919-1.9Z" transform="translate(-500.302 -347.054)"/><path class="f" d="M543.865,402.268c-4.753-2.943-8.936-3.72-12.811-2.379-8.027,2.77-13.785,14.685-20.488,33.008-1.646,4.521-1.219,8.154,1.273,10.819,10.824,11.57,58.935-2.065,64.388-3.657a1.705,1.705,0,0,0,.414-.186,1.65,1.65,0,0,0,.464-2.365C576.328,436.427,557.9,410.959,543.865,402.268Z" transform="translate(-509.585 -375.856)"/></g><path class="d" d="M537.037,409.484a7.863,7.863,0,1,1-10.833-2.5A7.862,7.862,0,0,1,537.037,409.484Z" transform="translate(-450.741 -352.682)"/></g></g><g transform="translate(1280.643 5803.92)"><path class="g" d="M673.767,117.73c-15.577-16-46.069-6.63-46.774,17.113-.426,10.865,11.732,16.161,19.876,20.743,2.24,1.39,20.238,11.193,11.766,13.18-4.331,1.061-10.506-1.521-14.66-2.418-5.6-1.153-11.675-2.391-17.483-1.425-9.058,1.551-13.414,11.225-4.8,16.888,11.15,7.269,28.537,1.716,39.242-3.524,6.363-3.187,11.09-6.5,14.94-13.279S686.258,130.542,673.767,117.73Z" transform="translate(-648.037 -90.774)"/><path class="h" d="M673.767,117.73c-15.577-16-46.069-6.63-46.774,17.113-.426,10.865,11.732,16.161,19.876,20.743,2.24,1.39,20.238,11.193,11.766,13.18-4.331,1.061-10.506-1.521-14.66-2.418-5.6-1.153-11.675-2.391-17.483-1.425-9.058,1.551-13.414,11.225-4.8,16.888,11.15,7.269,28.537,1.716,39.242-3.524,6.363-3.187,11.09-6.5,14.94-13.279S686.258,130.542,673.767,117.73Z" transform="translate(-617.037 -109.774)"/><path class="i" d="M667.253,119.989a22.708,22.708,0,0,0-12.42-6.5c-7.215-1.273-19.329,3.5-22.2,10.056-8.61,19.7,30.453,13.988,25.6,41.516-.234,1.315-1.129,3.581-4.947,4.57-9.484,2.459-15.209-2.695-20.845-3.309-17.093-1.863-18.472,10.452-8.31,12.425,10.764,2.086,26.571-1.709,31.717-4.226,5.908-2.958,10.007-5.85,13.4-11.835C672.954,156.162,677.846,130.858,667.253,119.989Z" transform="translate(-610.874 -107.165)"/><path class="j" d="M619.5,156.333c1-3.8,3.508-10.487,6.3-13.143,2.981-2.789,11.734,2.069,12.976-1.193.8-2.674-3.586-4.115-5.411-4.1-3.944-.2-7.562,2.479-10.028,5.191-5.479,5.666-14.79,17.117-10.555,20.351S618.168,161.072,619.5,156.333Z" transform="translate(-565.555 -88.852)"/><path class="k" d="M605.11,143.392c1.239-7.021,7.9-13.993,15.437-10.553" transform="translate(-535.727 -93.281)"/><path class="k" d="M631.661,148.777c-.241-10.6-5.184-20.224-16.547-22.528" transform="translate(-564.29 -97.512)"/><path class="h" d="M635.661,116.518c-3.974.931-12.345,5.172-10.464,11.49,1.709,5.747,10.923,4.767,15.479,3.276C657.433,125.8,646.013,114.094,635.661,116.518Z" transform="translate(-598.929 -104.997)"/><path class="h" d="M647.115,145.289c-2.041.065-6.558,1.322-6.258,4.6.272,2.986,4.888,3.412,7.267,3.128C656.878,151.979,652.428,145.118,647.115,145.289Z" transform="translate(-630.592 -83.342)"/><path class="h" d="M626.107,128.327c-1.391.324-4.319,1.811-3.663,4.021.6,2.011,3.822,1.669,5.418,1.148C633.73,131.576,629.73,127.477,626.107,128.327Z" transform="translate(-576.093 -96.05)"/></g><g transform="translate(1439.076 5719.5)"><path class="l" d="M690.288,120.047c-20.113-20.665-59.487-8.561-60.4,22.1-.55,14.03,15.149,20.868,25.666,26.785,2.892,1.8,26.132,14.453,15.192,17.019-5.593,1.369-13.566-1.964-18.929-3.122-7.225-1.489-15.075-3.088-22.575-1.84-11.7,2-17.32,14.494-6.2,21.807,14.4,9.385,36.848,2.216,50.671-4.55,8.217-4.115,14.32-8.392,19.291-17.147S706.418,136.59,690.288,120.047Z" transform="translate(-650.037 -88.774)"/><path class="m" d="M690.288,120.047c-20.113-20.665-59.487-8.561-60.4,22.1-.55,14.03,15.149,20.868,25.666,26.785,2.892,1.8,26.132,14.453,15.192,17.019-5.593,1.369-13.566-1.964-18.929-3.122-7.225-1.489-15.075-3.088-22.575-1.84-11.7,2-17.32,14.494-6.2,21.807,14.4,9.385,36.848,2.216,50.671-4.55,8.217-4.115,14.32-8.392,19.291-17.147S706.418,136.59,690.288,120.047Z" transform="translate(-617.037 -109.774)"/><path class="n" d="M681.674,121.943a29.321,29.321,0,0,0-16.037-8.4c-9.316-1.644-24.958,4.514-28.663,12.985-11.117,25.436,39.322,18.061,33.051,53.608-.3,1.7-1.457,4.624-6.388,5.9-12.246,3.176-19.638-3.48-26.916-4.273-22.071-2.405-23.852,13.5-10.73,16.043,13.9,2.694,34.31-2.207,40.954-5.457,7.628-3.82,12.921-7.554,17.309-15.282C689.035,168.652,695.352,135.977,681.674,121.943Z" transform="translate(-608.875 -105.384)"/><path class="o" d="M621.771,161.706c1.291-4.906,4.529-13.541,8.129-16.971,3.849-3.6,15.151,2.671,16.755-1.541,1.034-3.453-4.631-5.313-6.987-5.3-5.093-.257-9.764,3.2-12.949,6.7-7.075,7.316-19.1,22.1-13.629,26.278S620.051,167.825,621.771,161.706Z" transform="translate(-552.114 -74.572)"/><path class="p" d="M605.11,146.729c1.6-9.066,10.2-18.068,19.933-13.627" transform="translate(-515.52 -82.024)"/><path class="p" d="M636.48,155.338c-.311-13.69-6.694-26.113-21.366-29.089" transform="translate(-549.488 -89.142)"/><path class="q" d="M638.787,116.613c-5.131,1.2-15.94,6.678-13.512,14.836,2.207,7.421,14.1,6.156,19.987,4.23C666.9,128.6,652.155,113.482,638.787,116.613Z" transform="translate(-591.358 -101.737)"/><path class="q" d="M648.942,145.29c-2.635.083-8.469,1.707-8.081,5.944.351,3.856,6.311,4.406,9.383,4.038C661.549,153.928,655.8,145.07,648.942,145.29Z" transform="translate(-627.607 -65.301)"/><path class="q" d="M627.2,128.36c-1.8.419-5.577,2.338-4.73,5.192.773,2.6,4.935,2.155,7,1.482C637.044,132.556,631.88,127.263,627.2,128.36Z" transform="translate(-562.621 -86.683)"/></g><path class="r" d="M9393.9,6966.795c9.262,10.941,43.11,21.808,43.11,21.808,25.167,5.122,66.149,19.237,75.488,28.5l-53.64,10.171-6.937,5.438C9410.343,7006.314,9393.9,6966.795,9393.9,6966.795Z" transform="translate(-7810.063 -928)"/><path class="s" d="M9413.393,7033.787l-10.3-27.416c-23.22-48.189,18.539-100.461,18.539-100.461-.794,14.99,30.625,45.295,30.625,45.295,24.271,18.127,30.494,61.243,32.912,82.583Z" transform="translate(-7692.106 -934)"/><path class="t" d="M9475.036,7033.576c-20.656-29.889-52.06-55.535-50.095-76.99,0,0-2.847-43.992-17.094-59.47,0,0,80.345,38.968,105.9,98.63l24.5,43.028Z" transform="translate(-7796.439 -942)"/><path class="u" d="M9514.708,7049.5l-34.791-.79-20.929-35.337c-23.221-48.19,18.537-100.461,18.537-100.461-.792,14.988,30.626,45.295,30.626,45.295,24.038,17.95,31.8,69.569,34.3,91.293Z" transform="translate(-7738 -942)"/><path class="v" d="M9473.359,7056.168c-20.654-29.891-46.78-72.127-44.813-93.582,0,0-2.849-43.994-17.1-59.469,0,0,80.347,38.966,105.9,98.63l20.914,54.42Z" transform="translate(-7785.041 -949)"/><path class="w" d="M9465.248,7048.917c-41.575-26.4-55.413-77.122-55.413-77.122,9.263,10.942,43.111,21.807,43.111,21.807,25.166,5.124,71,46.191,80.336,55.452Z" transform="translate(-7821 -942)"/><path class="x" d="M586.772,171.31a357.94,357.94,0,0,1-20.2-31.7,274.061,274.061,0,0,1-15.752-33.624,183.783,183.783,0,0,1-9.571-35.461c1.79,5.869,3,11.849,5.218,17.582,1.019,2.887,1.821,5.832,2.995,8.669l3.411,8.537a316.791,316.791,0,0,0,16.252,33.192c5.952,10.855,17.866,29.2,24.812,39.6C593.285,181.887,590.112,175.926,586.772,171.31Z" transform="matrix(0.978, 0.208, -0.208, 0.978, 1219.332, 5805.089)"/><path class="y" d="M9510.007,7024.5c-2.889-3.441-4.483-5.728-7.368-9.375-8.127-10.3-15.511-20.995-22.484-31.864a300.334,300.334,0,0,1-18.131-33.709,194.645,194.645,0,0,1-12.04-35.436c2.2,5.868,3.822,11.837,6.445,17.579,1.22,2.885,2.229,5.83,3.6,8.672l4.012,8.551a348.3,348.3,0,0,0,18.611,33.284c6.724,10.9,14.1,21.513,21.8,31.975,2.937,3.985,5.534,6.535,8.567,10.324Z" transform="translate(-7790 -918)"/><path class="y" d="M9479.192,6980.5q-6.584-3.905-13.048-7.949a378.732,378.732,0,0,1-33.554-24.265,241.915,241.915,0,0,1-28.955-28c4.979,4.565,9.494,9.425,14.792,13.723,2.573,2.2,4.986,4.518,7.672,6.62l7.983,6.364c10.865,8.275,21.964,16.354,33.762,23.71q7.762,5.032,15.777,9.8Z" transform="translate(-7799 -874)"/></g></svg>