<svg xmlns="http://www.w3.org/2000/svg" xmlns:xlink="http://www.w3.org/1999/xlink" width="132.466" height="105.802" viewBox="0 0 132.466 105.802"><defs><style>.a{fill:#0d0d0d;opacity:0.06;}.b{fill:#127e27;opacity:0.09;}.c{fill:url(#a);}</style><linearGradient id="a" x1="0.5" x2="0.5" y2="1" gradientUnits="objectBoundingBox"><stop offset="0" stop-color="#4aff6d"/><stop offset="1" stop-color="#16be37"/></linearGradient></defs><g transform="translate(25.744 4.004)"><g transform="translate(0 0)"><ellipse class="a" cx="13" cy="5" rx="13" ry="5" transform="translate(12.893 85.477)"/><path class="b" d="M134.624,0C107.445,0,85.333,9.267,85.333,20.658c0,3.419,2.04,6.81,5.918,9.817l40.677,30.833a5.79,5.79,0,0,0,5.391,0l40.692-30.843c3.863-3,5.9-6.388,5.9-9.807C183.914,9.267,161.8,0,134.624,0Zm0,30.987c-13.589,0-24.645-4.634-24.645-10.329s11.056-10.329,24.645-10.329,24.645,4.634,24.645,10.329S148.213,30.987,134.624,30.987Z" transform="translate(-82.64 -13.738) rotate(14)"/><path class="c" d="M109.628,0A24.3,24.3,0,0,0,88.25,35.84L108.3,72.1a1.519,1.519,0,0,0,2.657,0l20.057-36.273A24.3,24.3,0,0,0,109.628,0Zm0,36.442a12.147,12.147,0,1,1,12.147-12.147A12.161,12.161,0,0,1,109.628,36.442Z" transform="translate(-85.333)"/></g></g></svg>