<svg xmlns="http://www.w3.org/2000/svg" width="22.292" height="22.292" viewBox="0 0 22.292 22.292"><path d="M9.159,223.119a.457.457,0,0,0-.668,0l-4.818,4.818-2.09-2.09a.893.893,0,0,0-.653-.276.894.894,0,0,0-.653.276A.894.894,0,0,0,0,226.5V233a.893.893,0,0,0,.276.653.894.894,0,0,0,.653.276h6.5a.924.924,0,0,0,.653-1.582L6,230.26l4.818-4.819a.457.457,0,0,0,0-.668Z" transform="translate(-0.001 -211.639)"/><path d="M233.657.276A.892.892,0,0,0,233,0h-6.5a.893.893,0,0,0-.653.276.893.893,0,0,0-.276.653.893.893,0,0,0,.276.653l2.09,2.09L223.12,8.49a.457.457,0,0,0,0,.668l1.655,1.655a.456.456,0,0,0,.667,0l4.819-4.818,2.089,2.09a.929.929,0,0,0,1.582-.653V.929A.889.889,0,0,0,233.657.276Z" transform="translate(-211.64 0)"/></svg>