<svg xmlns="http://www.w3.org/2000/svg" width="18.957" height="22.678" viewBox="0 0 18.957 22.678"><path d="M51.478,22.678A9.481,9.481,0,0,1,42,13.183c0-1.462.714-3.375,2.182-5.848a54.5,54.5,0,0,1,4.026-5.749,4.163,4.163,0,0,1,6.54,0,54.5,54.5,0,0,1,4.026,5.749c1.469,2.473,2.182,4.386,2.182,5.848a9.481,9.481,0,0,1-9.479,9.494Zm0-20.906a2.377,2.377,0,0,0-1.878.911c-3.7,4.7-5.829,8.529-5.829,10.5a7.707,7.707,0,1,0,15.414,0c0-1.971-2.124-5.8-5.829-10.5a2.377,2.377,0,0,0-1.878-.911ZM49.087,9.877a1.107,1.107,0,1,1-1.107,1.107A1.107,1.107,0,0,1,49.087,9.877Zm3.721,6.112a1.107,1.107,0,1,0,1.107-1.107A1.107,1.107,0,0,0,52.807,15.989Zm-3.258.835,5.226-5.448A.886.886,0,1,0,53.5,10.15L48.27,15.6a.886.886,0,0,0,1.278,1.226Z" transform="translate(-42)"/></svg>