<svg xmlns="http://www.w3.org/2000/svg" width="26.92" height="31.167" viewBox="0 0 26.92 31.167">
  <g id="play" transform="translate(-37.095 -2.561)">
    <g id="Group_4554" data-name="Group 4554" transform="translate(37.095 2.561)">
      <path id="Path_5954" data-name="Path 5954" d="M59.779,11.987,41.371.64a4.256,4.256,0,0,0-6.488,3.625V26.855a4.3,4.3,0,0,0,4.247,4.312h.019a4.271,4.271,0,0,0,2.207-.664,1.215,1.215,0,0,0-1.266-2.075,1.865,1.865,0,0,1-.947.308,1.889,1.889,0,0,1-1.83-1.881V4.264A1.826,1.826,0,0,1,40.1,2.709L58.5,14.056a1.826,1.826,0,0,1-.008,3.114L45.187,25.32a1.215,1.215,0,0,0,1.269,2.073l13.308-8.148a4.256,4.256,0,0,0,.015-7.258Z" transform="translate(-34.883 0)" fill="#fff"/>
    </g>
  </g>
</svg>
