<svg xmlns="http://www.w3.org/2000/svg" width="23.735" height="23.735" viewBox="0 0 23.735 23.735"><circle cx="6.824" cy="6.824" r="6.824" transform="translate(5.044 5.044)"/><path d="M196.642,118.664a11.138,11.138,0,0,1,.534,3,10.12,10.12,0,0,1-6.23,9.375,6.823,6.823,0,0,0,5.7-12.372Z" transform="translate(-181.541 -112.819)"/><path d="M221.47,0a1,1,0,0,0-1.009,1.009V2.67a1.009,1.009,0,1,0,2.017,0V1.009A1,1,0,0,0,221.47,0Z" transform="translate(-209.602)"/><path d="M221.47,407.191a1,1,0,0,0-1.009,1.009v1.661a1.009,1.009,0,1,0,2.017,0V408.2A1,1,0,0,0,221.47,407.191Z" transform="translate(-209.602 -387.135)"/><path d="M410.869,221.47a1,1,0,0,0-1.009-1.009H408.2a1.009,1.009,0,1,0,0,2.017h1.661A1,1,0,0,0,410.869,221.47Z" transform="translate(-387.134 -209.602)"/><path d="M3.679,221.47a1,1,0,0,0-1.009-1.009H1.009a1.009,1.009,0,1,0,0,2.017H2.67A1,1,0,0,0,3.679,221.47Z" transform="translate(0 -209.602)"/><path d="M355.427,64.891a1.021,1.021,0,0,0-1.424,0l-1.187,1.187A1.007,1.007,0,0,0,354.24,67.5l1.187-1.187A1.021,1.021,0,0,0,355.427,64.891Z" transform="translate(-335.163 -61.42)"/><path d="M67.5,352.816a1.021,1.021,0,0,0-1.424,0L64.891,354a1.007,1.007,0,0,0,1.424,1.424L67.5,354.24A1.021,1.021,0,0,0,67.5,352.816Z" transform="translate(-61.42 -335.163)"/><path d="M355.427,355.427a1.021,1.021,0,0,0,0-1.424l-1.187-1.187a1.007,1.007,0,0,0-1.424,1.424L354,355.427A1.021,1.021,0,0,0,355.427,355.427Z" transform="translate(-335.163 -335.163)"/><path d="M67.5,67.5a1.021,1.021,0,0,0,0-1.424l-1.187-1.187a1.007,1.007,0,0,0-1.424,1.424L66.078,67.5A1.021,1.021,0,0,0,67.5,67.5Z" transform="translate(-61.42 -61.42)"/></svg>