<svg xmlns="http://www.w3.org/2000/svg" width="11.806" height="23.611" viewBox="0 0 11.806 23.611"><path d="M137.838,13.309V3.935a3.935,3.935,0,0,0-7.87,0v9.373a5.9,5.9,0,1,0,7.87,0ZM133.9,21.644a3.935,3.935,0,0,1-2.623-6.869l.655-.587V3.935a1.968,1.968,0,1,1,3.935,0V14.188l.655.587a3.935,3.935,0,0,1-2.623,6.869Z" transform="translate(-128)"/><g transform="translate(4.919 7.87)"><rect width="1.968" height="11.806"/></g><g transform="translate(2.788 14.919)"><g transform="translate(0 0)"><circle cx="3.114" cy="3.114" r="3.114"/></g></g></svg>