<svg xmlns="http://www.w3.org/2000/svg" xmlns:xlink="http://www.w3.org/1999/xlink" width="286" height="286" viewBox="0 0 286 286">
  <defs>
    <linearGradient id="linear-gradient" x1="0.582" y1="-0.045" x2="0.495" y2="0.958" gradientUnits="objectBoundingBox">
      <stop offset="0.005" stop-color="#edff00"/>
      <stop offset="1" stop-color="#f84e20"/>
    </linearGradient>
    <linearGradient id="linear-gradient-2" x1="0.556" y1="-0.044" x2="0.442" y2="0.959" gradientUnits="objectBoundingBox">
      <stop offset="0.005" stop-color="#edc000"/>
      <stop offset="1" stop-color="#a14716"/>
    </linearGradient>
    <linearGradient id="linear-gradient-3" x1="0.5" x2="0.5" y2="1" gradientUnits="objectBoundingBox">
      <stop offset="0" stop-opacity="0"/>
      <stop offset="1"/>
    </linearGradient>
  </defs>
  <g id="ic_logo" transform="translate(-336 -270)">
    <rect id="Rectangle_16230" data-name="Rectangle 16230" width="286" height="286" transform="translate(336 270)" fill="none"/>
    <g id="Group_14478" data-name="Group 14478" transform="translate(0 0.501)">
      <path id="Path_33461" data-name="Path 33461" d="M121.192,153.784c-2.385.125-5.227-2.237-3.851-7.9,4.178-17.128,17.012-40.415,27.094-47.316,8.561-5.861,15.084,6.69,13.833,17.366-1.592,13.526-8.827,11.3-10.5,19.289-1.873,8.916-11.318,5.5-16.565,12.177C128.021,151.438,124.144,153.632,121.192,153.784Z" transform="translate(410.862 256.958)" opacity="0.11"/>
      <path id="Path_33460" data-name="Path 33460" d="M121.733,85.291c4.1-2.517,31.289-.42,39.639,4.1,16.983,9.2,22.775,15.01,29.076,27.3,14.968,29.2-28.795,57.7-19.541,119.5,5.99,40,33.3,58.827,22.7,77.8-7.852,14.043-29.555,15.8-41.61,16.77-10.913.883-35.145,2.837-45.7-10.733-13.5-17.343,9.121-42.372,17.022-92.22C135.14,153.191,102.128,97.322,121.733,85.291Z" transform="translate(338.747 208.681)" fill="#693304" opacity="0.1"/>
      <path id="Path_33456" data-name="Path 33456" d="M192.785,250.079C166.607,270.932,93.306,193.484,91.091,142c-1.711-39.859,61.806-56.46,84.561-57.721,31.574-1.757,17.117,29.987,10.283,85.3C178.516,229.643,204.285,240.922,192.785,250.079Z" transform="translate(297.017 208.837)" opacity="0.06"/>
      <g id="Group_14477" data-name="Group 14477" transform="translate(291.801 195.837)">
        <path id="Path_33444" data-name="Path 33444" d="M197.851,250.079C170.37,270.932,93.418,193.484,91.092,142c-1.8-39.859,64.884-56.46,88.772-57.721,33.146-1.757,17.97,29.987,10.8,85.3C182.872,229.643,209.925,240.922,197.851,250.079Z" transform="translate(0 0)" fill="#2dda4c"/>
        <path id="Path_33445" data-name="Path 33445" d="M107.532,84.991" transform="translate(76.303 3.61)"/>
        <path id="Path_33446" data-name="Path 33446" d="M93.825,102.682c-4.28,11.893-.3,27.351,4.494,38.254,12.575,28.607,35.584,53.858,44.572,59.444.974.6-13.442-10.655-29.294-41.159-11.679-22.48-11.662-38.913-12.04-48.717-.541-13.932,4-19.648,3-20.369C103.438,89.342,96.252,95.947,93.825,102.682Z" transform="translate(4.38 27.134)" fill="#fff" opacity="0.3"/>
        <path id="Path_33447" data-name="Path 33447" d="M92.366,142.762c-1.8-39.577,64.879-56.066,88.767-57.321,7.394-.389,12.276.963,15.486,3.779-3.114-3.677-8.385-5.384-16.759-4.939C155.972,85.542,89.291,102.144,91.094,142c2.05,45.558,62.53,111.4,95.468,111.506C153.359,251.746,94.393,187.425,92.366,142.762Z" transform="translate(0.004 0)" fill="#2dba00"/>
        <path id="Path_33448" data-name="Path 33448" d="M110.741,234.108a13.5,13.5,0,0,0,7.343,14.506c11.606,5.643,22.052,6.87,29.176,1.464,12.074-9.157-14.979-20.436-7.191-80.5,7.174-55.311,22.351-87.055-10.8-85.3a120.006,120.006,0,0,0-16.393,2.224A13.319,13.319,0,0,0,102,100.032c1.3,26.445,18.842,74.232,8.959,132.826C110.888,233.275,110.815,233.692,110.741,234.108Z" transform="translate(50.591 0)" opacity="0.11"/>
        <path id="Path_33449" data-name="Path 33449" d="M124.491,85.368c4.674-2.7,35.68-.451,45.2,4.4,19.366,9.866,25.972,16.089,33.157,29.266,17.069,31.293-32.836,61.849-22.283,128.085,6.831,42.877,37.972,63.054,25.882,83.389-8.954,15.053-33.7,16.933-47.45,17.975-12.445.946-40.078,3.041-52.118-11.5-15.4-18.589,10.4-45.417,19.411-98.847C139.78,158.148,102.135,98.264,124.491,85.368Z" transform="translate(51.071 0)" fill="url(#linear-gradient)"/>
        <path id="Path_33450" data-name="Path 33450" d="M115.744,120.755c-5.243,10.928-13.988,31.62-11.651,38.133.045.125.09.249.238.638,4.485,8.384,17.187,12.876,46.709,9.264,2.568-.574-24,4.277-37.419-8.859C103.862,150.381,116.983,118.171,115.744,120.755Z" transform="translate(58.574 168.564)" fill="#fff" opacity="0.27"/>
        <path id="Path_33451" data-name="Path 33451" d="M160.329,247.11c-10.553-66.236,39.352-96.791,22.283-128.085-7.186-13.177-13.791-19.4-33.157-29.266-8.577-4.364-34.5-6.611-43-5.051,10.9-.693,33.236,1.515,41.171,5.412,20.008,9.838,26.833,16.044,34.267,29.182,17.632,31.2-33.94,61.674-23.032,127.724,7.062,42.753,39.239,62.874,26.743,83.152-9.247,15.013-34.824,16.883-49.026,17.925-6.166.451-15.937,1.143-25.808.169,10.542,1.5,21.4.7,27.993.2,13.746-1.042,38.5-2.923,47.45-17.975C198.3,310.164,167.16,289.987,160.329,247.11Z" transform="translate(71.31 0.007)" fill="url(#linear-gradient-2)"/>
        <g id="Group_14476" data-name="Group 14476" transform="translate(237.041 156.622)">
          <path id="Path_33452" data-name="Path 33452" d="M121.7,156.029c-2.675.13-5.862-2.326-4.319-8.216,4.685-17.806,19.079-42.015,30.387-49.19,9.6-6.093,16.917,6.955,15.514,18.054-1.785,14.061-9.9,11.747-11.781,20.053-2.1,9.269-12.693,5.716-18.578,12.659C129.362,153.591,125.015,155.872,121.7,156.029Z" transform="translate(-116.98 -97.07)" fill="#2dda4c"/>
          <path id="Path_33453" data-name="Path 33453" d="M142.822,98.889c-8.937-2.309-25.318,31.175-24.08,31.935.76.467,6.093-12.642,19.208-16.286,3.993-1.109,7.354-.969,8.976-3.508C149.31,107.3,146.6,99.863,142.822,98.889Z" transform="translate(-109.126 -89.176)" fill="#fff" opacity="0.3"/>
          <g id="Group_14475" data-name="Group 14475" transform="translate(0.002 0.004)">
            <path id="Path_33454" data-name="Path 33454" d="M124.636,102.3l.084-.118Z" transform="translate(-81.525 -73.423)" fill="#2d9c4c"/>
            <path id="Path_33455" data-name="Path 33455" d="M118.177,148.362c4.9-17.654,19.366-41.813,30.494-49.117,3.334-2.185,6.33-1.988,8.757-.372-2.647-2.1-5.981-2.59-9.658-.253-11.308,7.174-25.7,31.383-30.387,49.19-1.076,4.1.158,6.5,1.9,7.563C117.946,154.19,117.186,151.932,118.177,148.362Z" transform="translate(-116.981 -97.071)" fill="#2d9c4c"/>
          </g>
        </g>
      </g>
      <path id="Path_33459" data-name="Path 33459" d="M4081.929,3992.751c11.5-4.752,13.565-16.938,14.025-21.076s-.592-19.316-6.25-29.763-13.341-29.143-14.506-38.468c.087-13.365.846-30.951.846-30.951s-.168,19.165,2.253,30.081a149.867,149.867,0,0,0,7.232,22.281c11.11,25.5,27.062,40.922,17.835,56.441-5.462,9.182-16.8,13.463-28.241,15.7-3.277.642-6.606,1.1-10.086,1.478C4061.931,3998.814,4070.433,3997.5,4081.929,3992.751Z" transform="translate(-3554.044 -3454.951)" opacity="0.27" fill="url(#linear-gradient-3)"/>
    </g>
  </g>
</svg>
